<svg version="1.1" xmlns="http://www.w3.org/2000/svg" viewBox="0 0 1788.3100727275946 1099.2421103716306" width="1788.3100727275946" height="1099.2421103716306">
  <!-- svg-source:excalidraw -->
  
  <defs>
    <style class="style-fonts">
      @font-face {
        font-family: "Virgil";
        src: url("https://excalidraw.com/Virgil.woff2");
      }
      @font-face {
        font-family: "Cascadia";
        src: url("https://excalidraw.com/Cascadia.woff2");
      }
      @font-face {
        font-family: "Assistant";
        src: url("https://excalidraw.com/Assistant-Regular.woff2");
      }
    </style>
    <clipPath id="5Nr3iATMCdLbJ9G5kddbz">
            <rect transform="translate(10 30.5) rotate(0 884.1550363637973 529.3710551858153)" width="1768.3100727275946" height="1058.7421103716306">
          </rect>
        </clipPath>
  </defs>
  <rect x="0" y="0" width="1788.3100727275946" height="1099.2421103716306" fill="#ffffff"></rect><g clip-path="url(#5Nr3iATMCdLbJ9G5kddbz)"><g stroke-linecap="round" transform="translate(187.10143646020578 527.8905193980762) rotate(0 43 46)"><path d="M57.32 3.03 C64.48 5.09, 73 11.66, 77.82 18.29 C82.63 24.93, 85.66 34.76, 86.23 42.83 C86.8 50.9, 85 59.52, 81.24 66.72 C77.47 73.91, 70.47 81.89, 63.64 86 C56.82 90.1, 47.93 91.84, 40.28 91.35 C32.63 90.85, 24.06 87.66, 17.74 83.04 C11.43 78.42, 5.1 71.44, 2.38 63.63 C-0.34 55.81, -0.17 44.4, 1.42 36.16 C3.01 27.93, 6.5 20.19, 11.9 14.23 C17.29 8.27, 25.3 2.02, 33.82 0.41 C42.34 -1.2, 57.59 3.22, 63.02 4.56 C68.45 5.9, 66.91 7.56, 66.38 8.47 M55.1 2.25 C62.59 4.13, 71.02 10.93, 76.12 16.86 C81.21 22.78, 84.4 29.75, 85.68 37.8 C86.96 45.85, 86.92 57.5, 83.77 65.16 C80.63 72.81, 73.45 79.05, 66.83 83.75 C60.2 88.44, 51.69 93.01, 44.04 93.34 C36.4 93.67, 27.51 90.6, 20.95 85.74 C14.4 80.87, 8.39 72.01, 4.72 64.17 C1.05 56.32, -1.89 46.74, -1.07 38.67 C-0.25 30.6, 4.44 22.04, 9.62 15.74 C14.81 9.44, 22.43 3.04, 30.04 0.88 C37.65 -1.28, 51.17 2.41, 55.28 2.79 C59.39 3.17, 54.95 2.47, 54.72 3.17" stroke="#1e1e1e" stroke-width="2" fill="none"></path></g></g><g clip-path="url(#5Nr3iATMCdLbJ9G5kddbz)"><g transform="translate(171.95857931734855 643.7476622552191) rotate(0 54.42993927001953 12.5)"><text x="0" y="17.52" font-family="Virgil, Segoe UI Emoji" font-size="20px" fill="#1e1e1e" text-anchor="start" style="white-space: pre;" direction="ltr" dominant-baseline="alphabetic">Fournisseur</text></g></g><g clip-path="url(#5Nr3iATMCdLbJ9G5kddbz)"><g stroke-linecap="round"><g transform="translate(285.86016118699945 584.1046559696349) rotate(0 82.26504932299858 9.18722059790673)"><path d="M0.57 0.21 C27.66 3.14, 136.15 14.19, 163.38 17.19 M-0.58 -0.73 C26.78 2.33, 138.24 14.74, 165.49 18.1" stroke="#1e1e1e" stroke-width="2" fill="none"></path></g><g transform="translate(285.86016118699945 584.1046559696349) rotate(0 82.26504932299858 9.18722059790673)"><path d="M141.17 23.88 C150.54 19.71, 157.23 18.56, 165.49 18.1 M141.17 23.88 C148.13 21.16, 155.59 20.35, 165.49 18.1" stroke="#1e1e1e" stroke-width="2" fill="none"></path></g><g transform="translate(285.86016118699945 584.1046559696349) rotate(0 82.26504932299858 9.18722059790673)"><path d="M143.14 6.89 C151.73 9.02, 157.68 14.17, 165.49 18.1 M143.14 6.89 C149.45 9.05, 156.34 13.09, 165.49 18.1" stroke="#1e1e1e" stroke-width="2" fill="none"></path></g></g><mask></mask></g><g clip-path="url(#5Nr3iATMCdLbJ9G5kddbz)"><g transform="translate(895.0422374521388 346.1693925427107) rotate(0 43.54166793823242 17.761898016476806)"><text x="0" y="24.895076259893884" font-family="Virgil, Segoe UI Emoji" font-size="28.419036826362877px" fill="#1e1e1e" text-anchor="start" style="white-space: pre;" direction="ltr" dominant-baseline="alphabetic">Picking</text></g></g><g clip-path="url(#5Nr3iATMCdLbJ9G5kddbz)"><g stroke-linecap="round" transform="translate(1516.763334519576 507.0152424281382) rotate(0 78 78)"><path d="M81.79 -0.19 C92.07 -0.71, 104.7 3.96, 114.15 8.74 C123.6 13.53, 132.06 20.44, 138.48 28.52 C144.91 36.6, 149.99 46.83, 152.68 57.22 C155.36 67.61, 156.27 80.45, 154.6 90.86 C152.94 101.26, 148.28 110.89, 142.68 119.64 C137.08 128.38, 129.59 137.34, 120.99 143.33 C112.38 149.32, 101.51 153.97, 91.04 155.59 C80.57 157.2, 68.55 155.79, 58.17 153.04 C47.78 150.28, 37.06 145.53, 28.74 139.03 C20.42 132.53, 12.95 123.44, 8.26 114.01 C3.58 104.58, 1.24 93.03, 0.62 82.46 C-0.01 71.89, 0.73 60.53, 4.54 50.58 C8.35 40.62, 15.76 30.34, 23.47 22.73 C31.17 15.12, 39.49 8.65, 50.79 4.91 C62.09 1.16, 83.3 0.37, 91.27 0.27 C99.23 0.17, 98.96 2.79, 98.57 4.29 M78.15 0.92 C87.82 -0.09, 98.16 3.3, 107.72 7.57 C117.27 11.83, 127.89 18.75, 135.47 26.51 C143.04 34.26, 149.75 44.32, 153.17 54.1 C156.59 63.89, 157.08 74.71, 155.98 85.24 C154.88 95.77, 151.68 108.04, 146.56 117.28 C141.43 126.53, 134.1 134.4, 125.25 140.71 C116.4 147.02, 104.15 152.97, 93.45 155.13 C82.75 157.3, 70.92 155.96, 61.03 153.72 C51.14 151.49, 42.58 147.82, 34.09 141.7 C25.59 135.58, 15.5 125.95, 10.07 117.01 C4.64 108.06, 2.45 98.61, 1.52 88.05 C0.59 77.5, 1.43 63.96, 4.49 53.66 C7.55 43.36, 12.86 34.27, 19.89 26.25 C26.92 18.23, 37.16 10.11, 46.66 5.54 C56.15 0.98, 71.5 -0.59, 76.86 -1.14 C82.22 -1.69, 78.56 0.8, 78.81 2.23" stroke="#1e1e1e" stroke-width="2" fill="none"></path></g></g><g clip-path="url(#5Nr3iATMCdLbJ9G5kddbz)"><g transform="translate(1573.721960961373 676.8827938580662) rotate(0 27.049972534179688 12.5)"><text x="0" y="17.52" font-family="Virgil, Segoe UI Emoji" font-size="20px" fill="#1e1e1e" text-anchor="start" style="white-space: pre;" direction="ltr" dominant-baseline="alphabetic">Client</text></g></g><g clip-path="url(#5Nr3iATMCdLbJ9G5kddbz)"><g transform="translate(48.10974835910139 64.49951497171844) rotate(0 115.31986999511719 50)"><text x="0" y="17.52" font-family="Virgil, Segoe UI Emoji" font-size="20px" fill="#1e1e1e" text-anchor="start" style="white-space: pre;" direction="ltr" dominant-baseline="alphabetic">DuckRabbit Logistico v1</text><text x="0" y="42.519999999999996" font-family="Virgil, Segoe UI Emoji" font-size="20px" fill="#1e1e1e" text-anchor="start" style="white-space: pre;" direction="ltr" dominant-baseline="alphabetic">©2023-12-04</text><text x="0" y="67.52" font-family="Virgil, Segoe UI Emoji" font-size="20px" fill="#1e1e1e" text-anchor="start" style="white-space: pre;" direction="ltr" dominant-baseline="alphabetic"></text><text x="0" y="92.52" font-family="Virgil, Segoe UI Emoji" font-size="20px" fill="#1e1e1e" text-anchor="start" style="white-space: pre;" direction="ltr" dominant-baseline="alphabetic"></text></g></g><g clip-path="url(#5Nr3iATMCdLbJ9G5kddbz)"><g stroke-linecap="round" transform="translate(649.7908777821763 560.2073919643195) rotate(0 202.75317381301295 115.85895646457874)"><path d="M32 0 C144.5 0.34, 258.25 -2.12, 373.51 0 M32 0 C141.85 0.33, 251.53 0.78, 373.51 0 M373.51 0 C393.88 -0.86, 404.48 11.9, 405.51 32 M373.51 0 C393.25 -1.6, 406.66 9.75, 405.51 32 M405.51 32 C406.22 83.43, 405.78 135.25, 405.51 199.72 M405.51 32 C405.19 99.15, 406.71 165.02, 405.51 199.72 M405.51 199.72 C405.39 222.83, 394.29 230.28, 373.51 231.72 M405.51 199.72 C405.07 220.27, 393.13 230.7, 373.51 231.72 M373.51 231.72 C281.51 229.47, 192.65 230.36, 32 231.72 M373.51 231.72 C250.87 231.48, 128.14 231.34, 32 231.72 M32 231.72 C11.48 232.32, -0.95 221.48, 0 199.72 M32 231.72 C9.22 233.71, -1.03 222.89, 0 199.72 M0 199.72 C-0.6 145.1, -0.66 88.82, 0 32 M0 199.72 C-0.68 146.24, -1.22 90.65, 0 32 M0 32 C0.09 10.09, 9.44 -1.15, 32 0 M0 32 C0.43 11.06, 12.17 -0.04, 32 0" stroke="#1e1e1e" stroke-width="2" fill="none"></path></g></g><g clip-path="url(#5Nr3iATMCdLbJ9G5kddbz)"><g stroke-linecap="round" transform="translate(854.2478597784918 330.19328721846426) rotate(0 95.41325826494722 91.15373780669069)"><path d="M32 0 C71.21 -0.15, 107.67 -1.52, 158.83 0 M32 0 C80.5 1.76, 128.31 0.19, 158.83 0 M158.83 0 C181.21 0.95, 189.04 10.17, 190.83 32 M158.83 0 C178.13 -0.06, 190.81 12.56, 190.83 32 M190.83 32 C188.56 60.35, 188.86 88.89, 190.83 150.31 M190.83 32 C190.86 73.62, 191.12 115.34, 190.83 150.31 M190.83 150.31 C190.68 173.54, 181.62 182.87, 158.83 182.31 M190.83 150.31 C190.2 172.76, 180.45 183.55, 158.83 182.31 M158.83 182.31 C114.04 183.65, 70.05 184.58, 32 182.31 M158.83 182.31 C113.48 181.94, 67.54 182.15, 32 182.31 M32 182.31 C10.49 183.32, -0.87 170.85, 0 150.31 M32 182.31 C12.71 180.33, -0.22 173.63, 0 150.31 M0 150.31 C-0.69 116.43, -0.2 78.96, 0 32 M0 150.31 C-0.52 108.89, -0.14 67.22, 0 32 M0 32 C1.96 11.82, 10.12 1.97, 32 0 M0 32 C1.55 11.13, 12.27 -1.83, 32 0" stroke="#1e1e1e" stroke-width="2" fill="none"></path></g></g><g clip-path="url(#5Nr3iATMCdLbJ9G5kddbz)"><g stroke-linecap="round"><g transform="translate(1275.0884810542414 582.3568983472536) rotate(0 120.11847692283527 -3.407616366605282)"><path d="M-0.5 -0.4 C39.61 -1.23, 199.72 -4.77, 239.93 -5.86 M1.43 -1.66 C41.42 -2.73, 199.01 -6.81, 238.82 -7.48" stroke="#1e1e1e" stroke-width="2" fill="none"></path></g><g transform="translate(1275.0884810542414 582.3568983472536) rotate(0 120.11847692283527 -3.407616366605282)"><path d="M215.52 1.59 C220.48 -0.99, 228.31 -1.75, 238.82 -7.48 M215.52 1.59 C221.56 -0.09, 229.85 -2.99, 238.82 -7.48" stroke="#1e1e1e" stroke-width="2" fill="none"></path></g><g transform="translate(1275.0884810542414 582.3568983472536) rotate(0 120.11847692283527 -3.407616366605282)"><path d="M215.14 -15.51 C220.06 -14.01, 227.98 -10.68, 238.82 -7.48 M215.14 -15.51 C221.42 -12.18, 229.82 -10.09, 238.82 -7.48" stroke="#1e1e1e" stroke-width="2" fill="none"></path></g></g><mask></mask></g><g transform="translate(10 10) rotate(0 59.45000076293945 8.75)"><text x="0" y="13.482" font-family="Assistant, Segoe UI Emoji" font-size="14px" fill="#999999" text-anchor="start" style="white-space: pre;" direction="ltr" dominant-baseline="alphabetic">Duckrabbit Logistico</text></g><rect transform="translate(10 30.5) rotate(0 884.1550363637973 529.3710551858153)" width="1768.3100727275946px" height="1058.7421103716306px" rx="8" ry="8" fill="none" stroke="#bbb" stroke-width="2"></rect><g clip-path="url(#5Nr3iATMCdLbJ9G5kddbz)"><g stroke-linecap="round" transform="translate(898.1480978123176 394.47014224979074) rotate(0 14.265723319276958 15.209959801814875)"><path d="M7.13 0 C11.58 -0.48, 13 0.94, 21.4 0 M7.13 0 C11.92 0.48, 16.99 -0.53, 21.4 0 M21.4 0 C25.4 0.83, 28.14 0.5, 28.53 7.13 M21.4 0 C25.97 1.18, 27.94 4.6, 28.53 7.13 M28.53 7.13 C27.17 9.43, 28.48 13.92, 28.53 23.29 M28.53 7.13 C29.02 10.02, 28.77 13.48, 28.53 23.29 M28.53 23.29 C30.03 29.99, 24.36 32.38, 21.4 30.42 M28.53 23.29 C29.41 28.85, 28.44 30.51, 21.4 30.42 M21.4 30.42 C19.39 31.79, 16.04 29.71, 7.13 30.42 M21.4 30.42 C17.97 29.86, 14.11 29.82, 7.13 30.42 M7.13 30.42 C3.88 28.89, -0.41 26.28, 0 23.29 M7.13 30.42 C1.44 30.17, 0.81 29.39, 0 23.29 M0 23.29 C1.18 16.8, 0.36 10.38, 0 7.13 M0 23.29 C0.09 17.41, 0.48 10.55, 0 7.13 M0 7.13 C0.51 1, 3.04 -1.92, 7.13 0 M0 7.13 C-1.05 2.17, 2.52 -1.38, 7.13 0" stroke="#1e1e1e" stroke-width="2" fill="none"></path></g></g><g clip-path="url(#5Nr3iATMCdLbJ9G5kddbz)"><g stroke-linecap="round" transform="translate(972.1772784368039 405.5200446959831) rotate(0 14.265723319276958 15.209959801814875)"><path d="M7.13 0 C12.65 0.84, 18.78 0.24, 21.4 0 M7.13 0 C10.05 0.03, 13.41 -0.51, 21.4 0 M21.4 0 C25.42 -0.45, 26.78 2.76, 28.53 7.13 M21.4 0 C24.43 1.64, 28.68 0.54, 28.53 7.13 M28.53 7.13 C27.44 10.27, 28.14 14.56, 28.53 23.29 M28.53 7.13 C29.19 12.75, 29.03 19.69, 28.53 23.29 M28.53 23.29 C30.13 28.02, 24.28 29.91, 21.4 30.42 M28.53 23.29 C28.27 29.33, 26.89 31.92, 21.4 30.42 M21.4 30.42 C17.48 31.61, 12.1 29.49, 7.13 30.42 M21.4 30.42 C17.84 31, 13.94 30.03, 7.13 30.42 M7.13 30.42 C2.93 28.58, 1.29 28.69, 0 23.29 M7.13 30.42 C3.41 31.36, 2.12 26.36, 0 23.29 M0 23.29 C0.32 18.33, 1.03 10.57, 0 7.13 M0 23.29 C-0.19 18.54, -0.67 14.61, 0 7.13 M0 7.13 C0.92 2.79, 1.29 -1.68, 7.13 0 M0 7.13 C-1.27 0.86, 2.38 1.75, 7.13 0" stroke="#1e1e1e" stroke-width="2" fill="none"></path></g></g><g clip-path="url(#5Nr3iATMCdLbJ9G5kddbz)"><g stroke-linecap="round" transform="translate(907.1315463934877 432.9309658705473) rotate(0 14.265723319276958 15.209959801814875)"><path d="M7.13 0 C10.46 -0.63, 15.56 -1.36, 21.4 0 M7.13 0 C11.73 -0.67, 15.55 0.08, 21.4 0 M21.4 0 C25.09 -1.4, 28.34 1.84, 28.53 7.13 M21.4 0 C27.35 2.19, 29.81 1.18, 28.53 7.13 M28.53 7.13 C27.96 14.41, 28.36 17.59, 28.53 23.29 M28.53 7.13 C28.77 12.1, 28.78 15.23, 28.53 23.29 M28.53 23.29 C28.89 29.22, 27.79 30.72, 21.4 30.42 M28.53 23.29 C26.99 27.19, 24.56 30.6, 21.4 30.42 M21.4 30.42 C15.94 30.82, 10.77 31.35, 7.13 30.42 M21.4 30.42 C17.31 29.96, 12.38 30.96, 7.13 30.42 M7.13 30.42 C2.45 30.94, 1.19 29.45, 0 23.29 M7.13 30.42 C1.12 29.83, 1.66 26.45, 0 23.29 M0 23.29 C0.43 19.33, 0.4 13.01, 0 7.13 M0 23.29 C0.09 20.41, -0.31 15.71, 0 7.13 M0 7.13 C1.22 1.65, 3.54 -0.63, 7.13 0 M0 7.13 C1.72 0.87, 4.44 1.76, 7.13 0" stroke="#1e1e1e" stroke-width="2" fill="none"></path></g></g><g clip-path="url(#5Nr3iATMCdLbJ9G5kddbz)"><g transform="translate(1573.4911210837913 187.1698244130817) rotate(0 47.36994934082031 12.5)"><text x="0" y="17.52" font-family="Virgil, Segoe UI Emoji" font-size="20px" fill="#1e1e1e" text-anchor="start" style="white-space: pre;" direction="ltr" dominant-baseline="alphabetic">Opération</text></g></g><g clip-path="url(#5Nr3iATMCdLbJ9G5kddbz)"><g transform="translate(663.026907735353 423.97924318770356) rotate(0 58.391666412353516 26.92582435059012)"><text x="0" y="37.73923540978711" font-family="Virgil, Segoe UI Emoji" font-size="43.08131896094419px" fill="#1e1e1e" text-anchor="start" style="white-space: pre;" direction="ltr" dominant-baseline="alphabetic">Stock</text></g></g><g clip-path="url(#5Nr3iATMCdLbJ9G5kddbz)"><g stroke-linecap="round" transform="translate(1451.494293603062 66.66194796950441) rotate(0 19.285714285714334 17.85714285714286)"><path d="M8.93 0 C13.29 0.28, 19.4 1.06, 29.64 0 M8.93 0 C14.28 0.91, 19.65 1.01, 29.64 0 M29.64 0 C33.77 0.28, 37.78 2.73, 38.57 8.93 M29.64 0 C36.66 -0.89, 40.6 0.81, 38.57 8.93 M38.57 8.93 C39.44 12.55, 38.38 18.19, 38.57 26.79 M38.57 8.93 C38.96 16.26, 38.21 22.57, 38.57 26.79 M38.57 26.79 C36.97 34.7, 35.51 35.38, 29.64 35.71 M38.57 26.79 C38.45 35.04, 36.09 37.45, 29.64 35.71 M29.64 35.71 C27.03 36.9, 20.65 36.11, 8.93 35.71 M29.64 35.71 C22.85 35.57, 17.26 35.52, 8.93 35.71 M8.93 35.71 C1.8 36.62, -1.71 32.62, 0 26.79 M8.93 35.71 C5.05 37.9, 1.65 31.98, 0 26.79 M0 26.79 C1.47 19.41, 1.64 14.16, 0 8.93 M0 26.79 C0.56 23.35, 0.18 18.36, 0 8.93 M0 8.93 C-1.66 3.48, 3.23 1.3, 8.93 0 M0 8.93 C-1.12 4.04, 4.16 0.28, 8.93 0" stroke="#1e1e1e" stroke-width="2" fill="none"></path></g></g><g clip-path="url(#5Nr3iATMCdLbJ9G5kddbz)"><g transform="translate(1504.3514364602052 70.94766225521869) rotate(0 100.58989715576172 25)"><text x="0" y="17.52" font-family="Virgil, Segoe UI Emoji" font-size="20px" fill="#1e1e1e" text-anchor="start" style="white-space: pre;" direction="ltr" dominant-baseline="alphabetic">Emplacement Interne</text><text x="0" y="42.519999999999996" font-family="Virgil, Segoe UI Emoji" font-size="20px" fill="#1e1e1e" text-anchor="start" style="white-space: pre;" direction="ltr" dominant-baseline="alphabetic"></text></g></g><g clip-path="url(#5Nr3iATMCdLbJ9G5kddbz)"><g stroke-linecap="round" transform="translate(1477.6409790368255 124.44675545150074) rotate(0 17.85714285714289 17.85714285714286)"><path d="M14.28 0.31 C17.8 -0.53, 23.09 0.91, 26.46 2.73 C29.84 4.54, 33.18 7.68, 34.52 11.2 C35.87 14.72, 35.77 20.19, 34.53 23.85 C33.3 27.5, 30.43 31.17, 27.12 33.14 C23.8 35.1, 18.46 36.23, 14.65 35.65 C10.83 35.06, 6.62 32.65, 4.22 29.63 C1.83 26.62, 0.32 21.44, 0.27 17.56 C0.22 13.68, 1.49 9.31, 3.91 6.34 C6.33 3.36, 12.77 0.79, 14.79 -0.27 C16.81 -1.33, 15.9 -0.45, 16.03 -0.03 M19.83 -0.39 C23.44 -0.38, 27.26 2.03, 29.82 4.82 C32.38 7.6, 34.72 12.45, 35.21 16.33 C35.71 20.21, 34.95 24.9, 32.79 28.1 C30.62 31.3, 25.9 34.56, 22.21 35.53 C18.53 36.5, 14.09 35.59, 10.67 33.93 C7.26 32.26, 3.34 28.92, 1.72 25.54 C0.11 22.16, -0.12 17.36, 0.97 13.63 C2.06 9.91, 5.13 5.46, 8.25 3.17 C11.37 0.89, 17.78 0.45, 19.71 -0.07 C21.63 -0.59, 19.87 -0.34, 19.82 0.05" stroke="#1e1e1e" stroke-width="2" fill="none"></path></g></g><g clip-path="url(#5Nr3iATMCdLbJ9G5kddbz)"><g transform="translate(1524.7838361796826 127.30389830864357) rotate(0 95.99989318847656 12.5)"><text x="0" y="17.52" font-family="Virgil, Segoe UI Emoji" font-size="20px" fill="#1e1e1e" text-anchor="start" style="white-space: pre;" direction="ltr" dominant-baseline="alphabetic">Emplacement Virtuel</text></g></g><g clip-path="url(#5Nr3iATMCdLbJ9G5kddbz)"><g stroke-linecap="round"><g transform="translate(1518.6453128653486 199.8265493865685) rotate(0 24.891559114523943 0.8812984629094558)"><path d="M0 0 C8.3 0.29, 41.49 1.47, 49.78 1.76 M0 0 C8.3 0.29, 41.49 1.47, 49.78 1.76" stroke="#1e1e1e" stroke-width="2" fill="none"></path></g><g transform="translate(1518.6453128653486 199.8265493865685) rotate(0 24.891559114523943 0.8812984629094558)"><path d="M26.09 9.45 C33.51 7.04, 40.93 4.63, 49.78 1.76 M26.09 9.45 C32.28 7.44, 38.48 5.43, 49.78 1.76" stroke="#1e1e1e" stroke-width="2" fill="none"></path></g><g transform="translate(1518.6453128653486 199.8265493865685) rotate(0 24.891559114523943 0.8812984629094558)"><path d="M26.69 -7.58 C33.93 -4.65, 41.16 -1.73, 49.78 1.76 M26.69 -7.58 C32.73 -5.14, 38.76 -2.7, 49.78 1.76" stroke="#1e1e1e" stroke-width="2" fill="none"></path></g></g><mask></mask></g><g clip-path="url(#5Nr3iATMCdLbJ9G5kddbz)"><g stroke-linecap="round"><g transform="translate(1548.1084092216086 247.92272680988486) rotate(0 28.847513974430285 0.7035979018153853)"><path d="M0.78 0.3 C10.04 0.62, 47.08 0.93, 56.63 1.25" stroke="#1e1e1e" stroke-width="2.5" fill="none" stroke-dasharray="8 10"></path></g><g transform="translate(1548.1084092216086 247.92272680988486) rotate(0 28.847513974430285 0.7035979018153853)"><path d="M32.98 9.34 C42.76 4.26, 51.23 3.57, 56.63 1.25" stroke="#1e1e1e" stroke-width="2.5" fill="none"></path></g><g transform="translate(1548.1084092216086 247.92272680988486) rotate(0 28.847513974430285 0.7035979018153853)"><path d="M33.31 -7.76 C42.87 -6.16, 51.21 -0.18, 56.63 1.25" stroke="#1e1e1e" stroke-width="2.5" fill="none"></path></g></g><mask></mask></g><g clip-path="url(#5Nr3iATMCdLbJ9G5kddbz)"><g transform="translate(1629.725765832192 235.25796457720816) rotate(0 29.119964599609375 12.5)"><text x="0" y="17.52" font-family="Virgil, Segoe UI Emoji" font-size="20px" fill="#1e1e1e" text-anchor="start" style="white-space: pre;" direction="ltr" dominant-baseline="alphabetic">Route</text></g></g><g clip-path="url(#5Nr3iATMCdLbJ9G5kddbz)"><g transform="translate(671.5791983198748 580.2620778814471) rotate(0 177.60000610351562 17.761898016476778)"><text x="0" y="24.895076259893884" font-family="Virgil, Segoe UI Emoji" font-size="28.419036826362877px" fill="#1e1e1e" text-anchor="start" style="white-space: pre;" direction="ltr" dominant-baseline="alphabetic">Réserve et gros produits</text></g></g><g clip-path="url(#5Nr3iATMCdLbJ9G5kddbz)"><g stroke-linecap="round" transform="translate(679.5865452410585 637.6543234290815) rotate(0 28.27475547890947 27.31495097066488)"><path d="M13.66 0 C22.87 -1.47, 37.02 1.97, 42.89 0 M13.66 0 C23.41 -0.3, 34.43 0.3, 42.89 0 M42.89 0 C50.77 1.21, 56.26 3.78, 56.55 13.66 M42.89 0 C51.84 -2.12, 54.29 5.43, 56.55 13.66 M56.55 13.66 C56.81 23.56, 55.58 33.26, 56.55 40.97 M56.55 13.66 C56.03 21.83, 55.87 29.88, 56.55 40.97 M56.55 40.97 C55.89 48.71, 51.43 54.27, 42.89 54.63 M56.55 40.97 C54.32 50.73, 52.44 56.47, 42.89 54.63 M42.89 54.63 C34.83 53.66, 23.38 53.04, 13.66 54.63 M42.89 54.63 C31.09 55.18, 19.98 54.77, 13.66 54.63 M13.66 54.63 C6.27 54.01, 1.2 49.71, 0 40.97 M13.66 54.63 C6.75 52.36, -0.4 51.09, 0 40.97 M0 40.97 C-0.14 29.27, -0.18 17.98, 0 13.66 M0 40.97 C0.87 35.92, -0.16 30.15, 0 13.66 M0 13.66 C1.14 5.73, 5.01 0.25, 13.66 0 M0 13.66 C0.56 5.09, 2.26 1.14, 13.66 0" stroke="#1e1e1e" stroke-width="2" fill="none"></path></g></g><g clip-path="url(#5Nr3iATMCdLbJ9G5kddbz)"><g stroke-linecap="round" transform="translate(857.0971529461094 636.2464453829037) rotate(0 28.27475547890947 27.31495097066488)"><path d="M13.66 0 C25.13 0.24, 34.3 -0.63, 42.89 0 M13.66 0 C24.79 0.04, 34.34 0.11, 42.89 0 M42.89 0 C50.15 -1.96, 57.32 5.39, 56.55 13.66 M42.89 0 C53.59 1.7, 56.64 5.19, 56.55 13.66 M56.55 13.66 C57.12 21.65, 55.52 27.38, 56.55 40.97 M56.55 13.66 C55.97 19.55, 56.47 25.05, 56.55 40.97 M56.55 40.97 C57.11 50.46, 53.6 54.91, 42.89 54.63 M56.55 40.97 C57.21 51.44, 53.28 53.32, 42.89 54.63 M42.89 54.63 C36.04 54.33, 27.26 56.12, 13.66 54.63 M42.89 54.63 C36.04 55.48, 29.63 55.83, 13.66 54.63 M13.66 54.63 C2.58 54.28, 0.88 51.99, 0 40.97 M13.66 54.63 C4.79 53.08, -0.13 49.05, 0 40.97 M0 40.97 C-0.35 32.75, 1.77 26.55, 0 13.66 M0 40.97 C0.36 33.66, -0.11 26.13, 0 13.66 M0 13.66 C0.47 2.56, 5.54 -1.58, 13.66 0 M0 13.66 C0.78 5.15, 2.66 -0.76, 13.66 0" stroke="#1e1e1e" stroke-width="2" fill="none"></path></g></g><g clip-path="url(#5Nr3iATMCdLbJ9G5kddbz)"><g stroke-linecap="round" transform="translate(825.2578567656028 710.008548799416) rotate(0 28.27475547890947 27.31495097066488)"><path d="M13.66 0 C20.47 1.1, 29.45 -0.88, 42.89 0 M13.66 0 C22.61 0.71, 31.49 1.03, 42.89 0 M42.89 0 C52.07 0.56, 55.39 5.47, 56.55 13.66 M42.89 0 C51.77 0.51, 58.13 3.23, 56.55 13.66 M56.55 13.66 C55.68 21.16, 55.78 31.04, 56.55 40.97 M56.55 13.66 C57.43 19.34, 56.92 25.34, 56.55 40.97 M56.55 40.97 C57.67 48.93, 50.85 52.87, 42.89 54.63 M56.55 40.97 C58.36 50.35, 51.39 52.97, 42.89 54.63 M42.89 54.63 C33.99 54.07, 22.86 54.33, 13.66 54.63 M42.89 54.63 C31.77 55.54, 19.88 53.91, 13.66 54.63 M13.66 54.63 C4.44 53.74, -0.15 48.7, 0 40.97 M13.66 54.63 C2.56 54.01, -0.27 51.9, 0 40.97 M0 40.97 C1.2 31.83, 0.52 20.57, 0 13.66 M0 40.97 C0.43 31.33, 0.27 23.52, 0 13.66 M0 13.66 C-1.65 3.89, 3.5 -1.07, 13.66 0 M0 13.66 C1.96 3.65, 2.64 0.88, 13.66 0" stroke="#1e1e1e" stroke-width="2" fill="none"></path></g></g><g clip-path="url(#5Nr3iATMCdLbJ9G5kddbz)"><g stroke-linecap="round" transform="translate(727.357179829813 714.6790320632948) rotate(0 28.27475547890947 27.31495097066488)"><path d="M13.66 0 C20.16 -1.94, 31.12 0.86, 42.89 0 M13.66 0 C24.73 -0.59, 35.7 -0.11, 42.89 0 M42.89 0 C52.44 1.38, 55.4 5.05, 56.55 13.66 M42.89 0 C50.3 0.87, 55.79 2.98, 56.55 13.66 M56.55 13.66 C57.06 21.46, 58.1 28.78, 56.55 40.97 M56.55 13.66 C56.14 22.07, 55.83 32.41, 56.55 40.97 M56.55 40.97 C56.79 49.55, 50.55 55.89, 42.89 54.63 M56.55 40.97 C54.8 50.57, 53.97 53.92, 42.89 54.63 M42.89 54.63 C30.39 54.56, 22.72 56.82, 13.66 54.63 M42.89 54.63 C33.37 54.54, 24.05 53.75, 13.66 54.63 M13.66 54.63 C4.01 54.4, 1.59 51.64, 0 40.97 M13.66 54.63 C4 56.57, 1.31 51.43, 0 40.97 M0 40.97 C0.44 30.16, 0.95 21.76, 0 13.66 M0 40.97 C-0.4 31.33, -0.61 23.58, 0 13.66 M0 13.66 C-0.78 2.89, 5.32 1.29, 13.66 0 M0 13.66 C-0.42 6.64, 4.73 -1.98, 13.66 0" stroke="#1e1e1e" stroke-width="2" fill="none"></path></g></g><g clip-path="url(#5Nr3iATMCdLbJ9G5kddbz)"><g stroke-linecap="round" transform="translate(950.0735768223009 672.0008585415201) rotate(0 28.27475547890947 27.31495097066488)"><path d="M13.66 0 C20.77 0.97, 29.93 0.17, 42.89 0 M13.66 0 C23.71 -0.59, 34.52 -0.27, 42.89 0 M42.89 0 C51.87 -1.37, 55.8 6.51, 56.55 13.66 M42.89 0 C52.85 -0.76, 55.07 5.06, 56.55 13.66 M56.55 13.66 C57.82 23.49, 56.3 29.14, 56.55 40.97 M56.55 13.66 C57.52 20.98, 56.21 27.23, 56.55 40.97 M56.55 40.97 C54.9 49.19, 51.24 55.64, 42.89 54.63 M56.55 40.97 C56.58 47.87, 51.49 56, 42.89 54.63 M42.89 54.63 C32.62 53.12, 19.82 53.13, 13.66 54.63 M42.89 54.63 C36.43 55.35, 31.23 54.43, 13.66 54.63 M13.66 54.63 C2.59 54.22, 1.7 48.15, 0 40.97 M13.66 54.63 C6.79 54.41, 0.95 51.48, 0 40.97 M0 40.97 C1.17 33.59, -0.9 28.42, 0 13.66 M0 40.97 C0.12 34.42, -0.38 25.99, 0 13.66 M0 13.66 C0.58 2.61, 2.7 -0.81, 13.66 0 M0 13.66 C-0.59 4.67, 2.82 1.22, 13.66 0" stroke="#1e1e1e" stroke-width="2" fill="none"></path></g></g><g clip-path="url(#5Nr3iATMCdLbJ9G5kddbz)"><g stroke-linecap="round" transform="translate(949.8507277224852 443.4677128791519) rotate(0 28.27475547890947 27.314950970664853)"><path d="M13.66 0 C21.64 -1.98, 27.18 -0.19, 42.89 0 M13.66 0 C22.01 0.11, 31.26 -0.46, 42.89 0 M42.89 0 C53.93 -1.62, 56.67 4.73, 56.55 13.66 M42.89 0 C50.04 1.02, 57.36 4.44, 56.55 13.66 M56.55 13.66 C58.41 20.41, 58.42 28.76, 56.55 40.97 M56.55 13.66 C56.13 22.99, 55.74 34.8, 56.55 40.97 M56.55 40.97 C55.45 50.19, 50.42 55.69, 42.89 54.63 M56.55 40.97 C55.97 51.45, 52.56 55.71, 42.89 54.63 M42.89 54.63 C34.27 55.16, 26.42 55.95, 13.66 54.63 M42.89 54.63 C35.47 54.75, 26.4 54.02, 13.66 54.63 M13.66 54.63 C4.61 53.55, 1.61 49.23, 0 40.97 M13.66 54.63 C6.72 53.43, 1.66 50.9, 0 40.97 M0 40.97 C1.09 33.75, 1.14 26.85, 0 13.66 M0 40.97 C-0.78 32.44, 0.04 21.2, 0 13.66 M0 13.66 C-1.53 4.88, 4.56 -1.39, 13.66 0 M0 13.66 C-0.27 5.97, 2.89 -0.56, 13.66 0" stroke="#1e1e1e" stroke-width="2" fill="none"></path></g></g><g clip-path="url(#5Nr3iATMCdLbJ9G5kddbz)"><g stroke-linecap="round" transform="translate(433.55515748083855 149.3442070010401) rotate(0 433.7605723201557 433.76057232015575)"><path d="M542.5 108.5 C613.81 181.53, 687.79 255.27, 759.02 325.5 M542.5 108.5 C597.99 162.17, 651.86 216.86, 759.02 325.5 M759.02 325.5 C869.18 433.02, 866.75 435.97, 759.02 542.5 M759.02 325.5 C867.81 433.04, 868.39 435.65, 759.02 542.5 M759.02 542.5 C717.37 588.32, 673.66 630.85, 542.5 759.02 M759.02 542.5 C677.55 625.13, 596.97 704.54, 542.5 759.02 M542.5 759.02 C434.09 868.73, 435.17 868.51, 325.5 759.02 M542.5 759.02 C434.87 867.57, 435.98 865.35, 325.5 759.02 M325.5 759.02 C247.98 682.21, 171.66 604.63, 108.5 542.5 M325.5 759.02 C241.15 674.94, 157.5 592.13, 108.5 542.5 M108.5 542.5 C0.1 433.36, 1.5 432.9, 108.5 325.5 M108.5 542.5 C1.53 434.52, 1.86 435.59, 108.5 325.5 M108.5 325.5 C189.49 244.68, 272.86 162.65, 325.5 108.5 M108.5 325.5 C181.64 252.82, 254.8 178.95, 325.5 108.5 M325.5 108.5 C435.78 -1.91, 435.02 -0.87, 542.5 108.5 M325.5 108.5 C435.05 0.25, 435.1 -1.12, 542.5 108.5" stroke="#1e1e1e" stroke-width="2" fill="none"></path></g></g></svg>