<svg version="1.1" xmlns="http://www.w3.org/2000/svg" viewBox="0 0 1462.830147300171 962.15890896004" width="1462.830147300171" height="962.15890896004">
  <!-- svg-source:excalidraw -->
  
  <defs>
    <style class="style-fonts">
      @font-face {
        font-family: "Virgil";
        src: url("https://excalidraw.com/Virgil.woff2");
      }
      @font-face {
        font-family: "Cascadia";
        src: url("https://excalidraw.com/Cascadia.woff2");
      }
      @font-face {
        font-family: "Assistant";
        src: url("https://excalidraw.com/Assistant-Regular.woff2");
      }
    </style>
    <clipPath id="5Nr3iATMCdLbJ9G5kddbz">
            <rect transform="translate(10 30.5) rotate(0 721.4150736500854 460.82945448002)" width="1442.830147300171" height="921.65890896004">
          </rect>
        </clipPath>
  </defs>
  <rect x="0" y="0" width="1462.830147300171" height="962.15890896004" fill="#ffffff"></rect><g clip-path="url(#5Nr3iATMCdLbJ9G5kddbz)"><g stroke-linecap="round" transform="translate(83.01079051852753 757.8146844339237) rotate(0 43 46)"><path d="M57.32 3.03 C64.48 5.09, 73 11.66, 77.82 18.29 C82.63 24.93, 85.66 34.76, 86.23 42.83 C86.8 50.9, 85 59.52, 81.24 66.72 C77.47 73.91, 70.47 81.89, 63.64 86 C56.82 90.1, 47.93 91.84, 40.28 91.35 C32.63 90.85, 24.06 87.66, 17.74 83.04 C11.43 78.42, 5.1 71.44, 2.38 63.63 C-0.34 55.81, -0.17 44.4, 1.42 36.16 C3.01 27.93, 6.5 20.19, 11.9 14.23 C17.29 8.27, 25.3 2.02, 33.82 0.41 C42.34 -1.2, 57.59 3.22, 63.02 4.56 C68.45 5.9, 66.91 7.56, 66.38 8.47 M55.1 2.25 C62.59 4.13, 71.02 10.93, 76.12 16.86 C81.21 22.78, 84.4 29.75, 85.68 37.8 C86.96 45.85, 86.92 57.5, 83.77 65.16 C80.63 72.81, 73.45 79.05, 66.83 83.75 C60.2 88.44, 51.69 93.01, 44.04 93.34 C36.4 93.67, 27.51 90.6, 20.95 85.74 C14.4 80.87, 8.39 72.01, 4.72 64.17 C1.05 56.32, -1.89 46.74, -1.07 38.67 C-0.25 30.6, 4.44 22.04, 9.62 15.74 C14.81 9.44, 22.43 3.04, 30.04 0.88 C37.65 -1.28, 51.17 2.41, 55.28 2.79 C59.39 3.17, 54.95 2.47, 54.72 3.17" stroke="#1e1e1e" stroke-width="2" fill="none"></path></g></g><g clip-path="url(#5Nr3iATMCdLbJ9G5kddbz)"><g transform="translate(69.29650480424175 862.2432558624952) rotate(0 54.44166564941406 12.5)"><text x="0" y="0" font-family="Virgil, Segoe UI Emoji" font-size="20px" fill="#1e1e1e" text-anchor="start" style="white-space: pre;" direction="ltr" dominant-baseline="text-before-edge">Fournisseur</text></g></g><g clip-path="url(#5Nr3iATMCdLbJ9G5kddbz)"><g stroke-linecap="round"><g transform="translate(166.05328795600042 777.5633400296663) rotate(0 109.35316961843841 -88.94006141043343)"><path d="M0.57 0.21 C36.69 -29.57, 181.29 -149.36, 217.56 -179.07 M-0.58 -0.73 C35.81 -30.38, 183.39 -148.81, 219.67 -178.16" stroke="#1e1e1e" stroke-width="2" fill="none"></path></g><g transform="translate(166.05328795600042 777.5633400296663) rotate(0 109.35316961843841 -88.94006141043343)"><path d="M204.15 -152.48 C210.32 -163.98, 213.75 -172.5, 219.67 -178.16 M204.15 -152.48 C208.7 -160.83, 213.64 -167.33, 219.67 -178.16" stroke="#1e1e1e" stroke-width="2" fill="none"></path></g><g transform="translate(166.05328795600042 777.5633400296663) rotate(0 109.35316961843841 -88.94006141043343)"><path d="M191.28 -168.46 C202.17 -174.1, 210.36 -176.7, 219.67 -178.16 M191.28 -168.46 C199.42 -172.33, 208.05 -174.26, 219.67 -178.16" stroke="#1e1e1e" stroke-width="2" fill="none"></path></g></g><mask></mask></g><g clip-path="url(#5Nr3iATMCdLbJ9G5kddbz)"><g transform="translate(445.34286705604904 690.3020550810342) rotate(0 38.150001525878906 12.5)"><text x="0" y="0" font-family="Virgil, Segoe UI Emoji" font-size="20px" fill="#1e1e1e" text-anchor="start" style="white-space: pre;" direction="ltr" dominant-baseline="text-before-edge">Reserve</text></g></g><g clip-path="url(#5Nr3iATMCdLbJ9G5kddbz)"><g stroke-linecap="round"><g transform="translate(534.6676358037668 527.8924463371613) rotate(0 186.0462182215319 -80.58382898294008)"><path d="M0.49 0.23 C62.83 -26.71, 311.1 -133.86, 372.88 -160.81 M-0.72 -0.69 C61.64 -28.08, 309.97 -136.14, 372.35 -162.75" stroke="#1e1e1e" stroke-width="2" fill="none"></path></g><g transform="translate(534.6676358037668 527.8924463371613) rotate(0 186.0462182215319 -80.58382898294008)"><path d="M350.53 -142.16 C355.2 -145.11, 359.84 -152.15, 372.35 -162.75 M350.53 -142.16 C356.46 -148.12, 362.82 -154.11, 372.35 -162.75" stroke="#1e1e1e" stroke-width="2" fill="none"></path></g><g transform="translate(534.6676358037668 527.8924463371613) rotate(0 186.0462182215319 -80.58382898294008)"><path d="M342.4 -161 C348.85 -160.16, 355.14 -163.38, 372.35 -162.75 M342.4 -161 C350.64 -161.86, 359.22 -162.72, 372.35 -162.75" stroke="#1e1e1e" stroke-width="2" fill="none"></path></g></g><mask></mask></g><g clip-path="url(#5Nr3iATMCdLbJ9G5kddbz)"><g stroke-linecap="round" transform="translate(1205.0107905185275 649.8146844339237) rotate(0 78 78)"><path d="M81.79 -0.19 C92.07 -0.71, 104.7 3.96, 114.15 8.74 C123.6 13.53, 132.06 20.44, 138.48 28.52 C144.91 36.6, 149.99 46.83, 152.68 57.22 C155.36 67.61, 156.27 80.45, 154.6 90.86 C152.94 101.26, 148.28 110.89, 142.68 119.64 C137.08 128.38, 129.59 137.34, 120.99 143.33 C112.38 149.32, 101.51 153.97, 91.04 155.59 C80.57 157.2, 68.55 155.79, 58.17 153.04 C47.78 150.28, 37.06 145.53, 28.74 139.03 C20.42 132.53, 12.95 123.44, 8.26 114.01 C3.58 104.58, 1.24 93.03, 0.62 82.46 C-0.01 71.89, 0.73 60.53, 4.54 50.58 C8.35 40.62, 15.76 30.34, 23.47 22.73 C31.17 15.12, 39.49 8.65, 50.79 4.91 C62.09 1.16, 83.3 0.37, 91.27 0.27 C99.23 0.17, 98.96 2.79, 98.57 4.29 M78.15 0.92 C87.82 -0.09, 98.16 3.3, 107.72 7.57 C117.27 11.83, 127.89 18.75, 135.47 26.51 C143.04 34.26, 149.75 44.32, 153.17 54.1 C156.59 63.89, 157.08 74.71, 155.98 85.24 C154.88 95.77, 151.68 108.04, 146.56 117.28 C141.43 126.53, 134.1 134.4, 125.25 140.71 C116.4 147.02, 104.15 152.97, 93.45 155.13 C82.75 157.3, 70.92 155.96, 61.03 153.72 C51.14 151.49, 42.58 147.82, 34.09 141.7 C25.59 135.58, 15.5 125.95, 10.07 117.01 C4.64 108.06, 2.45 98.61, 1.52 88.05 C0.59 77.5, 1.43 63.96, 4.49 53.66 C7.55 43.36, 12.86 34.27, 19.89 26.25 C26.92 18.23, 37.16 10.11, 46.66 5.54 C56.15 0.98, 71.5 -0.59, 76.86 -1.14 C82.22 -1.69, 78.56 0.8, 78.81 2.23" stroke="#1e1e1e" stroke-width="2" fill="none"></path></g></g><g clip-path="url(#5Nr3iATMCdLbJ9G5kddbz)"><g stroke-linecap="round"><g transform="translate(1037.1313041073854 389.01890996407695) rotate(0 97.58891577668226 137.8806610138441)"><path d="M0.15 -0.09 C32.84 45.88, 162.58 228.9, 195.11 275 M-1.24 -1.18 C31.39 44.99, 161.49 230.19, 194.13 276.14" stroke="#1e1e1e" stroke-width="2" fill="none"></path></g><g transform="translate(1037.1313041073854 389.01890996407695) rotate(0 97.58891577668226 137.8806610138441)"><path d="M169.49 259.03 C174.42 262.49, 178.48 266.42, 194.13 276.14 M169.49 259.03 C179.12 264.89, 186.88 271.35, 194.13 276.14" stroke="#1e1e1e" stroke-width="2" fill="none"></path></g><g transform="translate(1037.1313041073854 389.01890996407695) rotate(0 97.58891577668226 137.8806610138441)"><path d="M186.25 247.19 C187.58 253.16, 188.11 259.59, 194.13 276.14 M186.25 247.19 C189.8 257.36, 191.48 268.11, 194.13 276.14" stroke="#1e1e1e" stroke-width="2" fill="none"></path></g></g><mask></mask></g><g clip-path="url(#5Nr3iATMCdLbJ9G5kddbz)"><g transform="translate(935.582219089956 431.10039871963795) rotate(0 39.29999923706055 12.5)"><text x="0" y="0" font-family="Virgil, Segoe UI Emoji" font-size="20px" fill="#1e1e1e" text-anchor="start" style="white-space: pre;" direction="ltr" dominant-baseline="text-before-edge">Etagere</text></g></g><g clip-path="url(#5Nr3iATMCdLbJ9G5kddbz)"><g transform="translate(1261.9694169603247 819.6822358638517) rotate(0 27.049999237060547 12.5)"><text x="0" y="0" font-family="Virgil, Segoe UI Emoji" font-size="20px" fill="#1e1e1e" text-anchor="start" style="white-space: pre;" direction="ltr" dominant-baseline="text-before-edge">Client</text></g></g><g clip-path="url(#5Nr3iATMCdLbJ9G5kddbz)"><g stroke-linecap="round"><g transform="translate(1195.8790695957182 754.3865343700812) rotate(0 -313.5706243628759 -72.06477557157041)"><path d="M0.48 -0.36 C-103.95 -24.15, -522.35 -119.46, -626.95 -143.37 M-0.73 -1.6 C-105.27 -25.67, -523.28 -121.63, -627.8 -145.1" stroke="#1e1e1e" stroke-width="2" fill="none"></path></g><g transform="translate(1195.8790695957182 754.3865343700812) rotate(0 -313.5706243628759 -72.06477557157041)"><path d="M-598.04 -148.85 C-606.61 -147.42, -612.69 -146.7, -627.8 -145.1 M-598.04 -148.85 C-607.18 -146.77, -616.65 -146.68, -627.8 -145.1" stroke="#1e1e1e" stroke-width="2" fill="none"></path></g><g transform="translate(1195.8790695957182 754.3865343700812) rotate(0 -313.5706243628759 -72.06477557157041)"><path d="M-602.59 -128.84 C-609.84 -132.77, -614.71 -137.4, -627.8 -145.1 M-602.59 -128.84 C-610.26 -133.21, -618.27 -139.56, -627.8 -145.1" stroke="#1e1e1e" stroke-width="2" fill="none"></path></g></g><mask></mask></g><g clip-path="url(#5Nr3iATMCdLbJ9G5kddbz)"><g transform="translate(851.0107905185275 696.8146844339237) rotate(0 33.42499923706055 12.5)"><text x="0" y="0" font-family="Virgil, Segoe UI Emoji" font-size="20px" fill="#1e1e1e" text-anchor="start" style="white-space: pre;" direction="ltr" dominant-baseline="text-before-edge">Retour</text></g></g><g clip-path="url(#5Nr3iATMCdLbJ9G5kddbz)"><g transform="translate(179.4393619470991 653.6718272910664) rotate(0 45.71666717529297 12.5)"><text x="0" y="0" font-family="Virgil, Segoe UI Emoji" font-size="20px" fill="#1e1e1e" text-anchor="start" style="white-space: pre;" direction="ltr" dominant-baseline="text-before-edge">Reception</text></g></g><g clip-path="url(#5Nr3iATMCdLbJ9G5kddbz)"><g transform="translate(644.0107905185273 394.38611300535234) rotate(0 45.96666717529297 12.5)"><text x="0" y="0" font-family="Virgil, Segoe UI Emoji" font-size="20px" fill="#1e1e1e" text-anchor="start" style="white-space: pre;" direction="ltr" dominant-baseline="text-before-edge">Réassort</text></g></g><g clip-path="url(#5Nr3iATMCdLbJ9G5kddbz)"><g transform="translate(1160.0107905185275 507.81468443392373) rotate(0 42.21666717529297 12.5)"><text x="0" y="0" font-family="Virgil, Segoe UI Emoji" font-size="20px" fill="#1e1e1e" text-anchor="start" style="white-space: pre;" direction="ltr" dominant-baseline="text-before-edge">Livraison</text></g></g><g clip-path="url(#5Nr3iATMCdLbJ9G5kddbz)"><g transform="translate(946.1397231122482 260.9658185747629) rotate(0 34.656641947241724 -50.789906301992346)" stroke="none"><path fill="#1e1e1e" d="M -1.14,1.14 Q -1.14,1.14 -1.92,0.54 -2.70,-0.04 -4.06,-1.18 -5.41,-2.32 -6.92,-4.48 -8.44,-6.64 -9.32,-8.11 -10.21,-9.58 -11.30,-11.70 -12.40,-13.81 -13.30,-16.59 -14.19,-19.37 -15.22,-22.13 -16.24,-24.89 -17.09,-27.90 -17.93,-30.91 -18.31,-33.68 -18.69,-36.45 -18.84,-39.02 -18.99,-41.59 -19.05,-44.41 -19.11,-47.23 -19.15,-49.82 -19.19,-52.40 -18.13,-55.93 -17.07,-59.47 -16.31,-62.14 -15.55,-64.81 -14.46,-67.18 -13.37,-69.55 -11.83,-72.01 -10.29,-74.46 -8.48,-76.34 -6.66,-78.23 -5.28,-79.64 -3.90,-81.04 -1.85,-82.76 0.20,-84.47 2.00,-86.15 3.81,-87.84 5.70,-89.34 7.60,-90.85 9.86,-92.26 12.13,-93.67 14.03,-94.90 15.94,-96.14 17.95,-97.10 19.96,-98.06 22.10,-99.11 24.24,-100.16 26.69,-101.02 29.14,-101.88 31.57,-102.57 33.99,-103.27 36.58,-103.61 39.17,-103.94 41.65,-104.12 44.13,-104.30 46.21,-104.37 48.29,-104.44 50.78,-104.11 53.27,-103.78 55.68,-103.27 58.09,-102.77 60.52,-102.22 62.95,-101.67 65.42,-100.25 67.89,-98.83 69.81,-97.59 71.74,-96.35 73.50,-94.59 75.26,-92.82 76.69,-91.01 78.11,-89.20 79.15,-87.21 80.20,-85.22 81.22,-83.54 82.25,-81.85 83.14,-79.90 84.03,-77.96 85.04,-75.86 86.05,-73.75 86.60,-71.50 87.15,-69.25 87.65,-67.48 88.16,-65.70 88.44,-63.28 88.71,-60.87 88.81,-58.81 88.91,-56.75 88.21,-54.07 87.51,-51.40 86.89,-49.40 86.26,-47.41 85.64,-45.53 85.03,-43.65 84.41,-41.82 83.79,-40.00 83.15,-38.44 82.50,-36.88 81.87,-35.52 81.24,-34.17 80.61,-32.90 79.99,-31.63 78.88,-30.16 77.78,-28.70 77.11,-27.62 76.44,-26.55 75.31,-25.19 74.18,-23.83 73.53,-22.77 72.88,-21.70 72.13,-20.74 71.38,-19.78 69.50,-18.12 67.62,-16.46 66.49,-14.97 65.36,-13.48 63.86,-11.81 62.36,-10.14 61.36,-8.78 60.36,-7.42 58.39,-7.67 56.42,-7.93 56.30,-7.82 56.18,-7.72 56.04,-7.65 55.90,-7.57 55.75,-7.54 55.59,-7.50 55.43,-7.50 55.28,-7.51 55.12,-7.55 54.97,-7.58 54.83,-7.66 54.69,-7.73 54.57,-7.84 54.46,-7.95 54.37,-8.08 54.28,-8.21 54.22,-8.36 54.17,-8.51 54.15,-8.66 54.14,-8.82 54.16,-8.98 54.18,-9.14 54.23,-9.28 54.29,-9.43 54.38,-9.56 54.48,-9.69 54.32,-9.09 54.17,-8.49 54.16,-8.70 54.14,-8.91 54.19,-9.12 54.24,-9.32 54.35,-9.50 54.47,-9.68 54.63,-9.82 54.80,-9.95 55.00,-10.02 55.20,-10.10 55.41,-10.10 55.62,-10.11 55.83,-10.05 56.03,-9.99 56.20,-9.86 56.37,-9.74 56.50,-9.57 56.62,-9.39 56.69,-9.19 56.75,-8.99 56.74,-8.78 56.74,-8.56 56.67,-8.36 56.59,-8.16 56.46,-8.00 56.33,-7.83 56.15,-7.72 55.97,-7.60 55.76,-7.55 55.56,-7.50 55.35,-7.52 55.13,-7.53 54.94,-7.62 54.74,-7.70 54.59,-7.84 54.43,-7.98 54.32,-8.17 54.22,-8.35 54.18,-8.56 54.14,-8.77 54.16,-8.98 54.19,-9.19 54.29,-9.38 54.38,-9.57 54.53,-9.72 54.68,-9.87 54.87,-9.97 55.06,-10.06 55.27,-10.09 55.48,-10.12 55.69,-10.08 55.90,-10.04 56.08,-9.94 56.27,-9.83 56.41,-9.68 56.55,-9.52 56.49,-8.72 56.42,-7.93 56.30,-7.82 56.18,-7.72 56.04,-7.65 55.90,-7.57 55.75,-7.54 55.59,-7.50 55.43,-7.50 55.28,-7.51 55.12,-7.55 54.97,-7.58 54.83,-7.66 54.69,-7.73 54.57,-7.84 54.46,-7.95 54.37,-8.08 54.28,-8.21 54.22,-8.36 54.17,-8.51 54.15,-8.66 54.14,-8.82 54.16,-8.98 54.18,-9.14 54.23,-9.28 54.29,-9.43 54.38,-9.56 54.47,-9.69 54.62,-9.85 54.77,-10.02 55.51,-10.82 56.25,-11.63 56.84,-12.65 57.43,-13.67 58.41,-14.37 59.40,-15.08 60.75,-16.93 62.10,-18.78 63.89,-20.45 65.68,-22.12 66.84,-23.48 68.01,-24.85 68.90,-26.17 69.79,-27.50 70.67,-28.54 71.54,-29.59 72.36,-30.92 73.18,-32.25 73.96,-33.22 74.74,-34.18 75.31,-35.40 75.88,-36.62 76.44,-37.88 77.01,-39.13 77.56,-40.50 78.12,-41.87 78.70,-43.69 79.28,-45.51 79.88,-47.37 80.47,-49.22 81.09,-51.16 81.70,-53.10 82.29,-54.83 82.89,-56.56 82.79,-58.40 82.70,-60.24 82.53,-62.15 82.35,-64.06 81.80,-65.99 81.25,-67.92 80.93,-69.55 80.60,-71.17 79.56,-73.33 78.52,-75.49 77.81,-77.12 77.10,-78.74 75.98,-80.60 74.87,-82.46 74.10,-83.97 73.33,-85.49 72.11,-87.05 70.89,-88.62 69.66,-89.96 68.44,-91.30 66.58,-92.51 64.71,-93.72 63.11,-94.82 61.51,-95.93 59.21,-96.48 56.91,-97.02 54.67,-97.48 52.43,-97.93 50.43,-98.24 48.43,-98.56 46.43,-98.52 44.42,-98.49 42.14,-98.42 39.85,-98.36 37.70,-98.11 35.54,-97.87 33.26,-97.20 30.99,-96.54 28.85,-95.82 26.71,-95.09 24.53,-94.02 22.34,-92.96 20.64,-92.18 18.94,-91.41 16.95,-90.17 14.97,-88.94 12.93,-87.77 10.90,-86.60 9.15,-85.27 7.40,-83.94 5.47,-82.18 3.55,-80.42 1.67,-78.88 -0.20,-77.35 -1.59,-75.97 -2.99,-74.59 -4.49,-73.14 -5.98,-71.69 -7.36,-69.54 -8.74,-67.39 -9.69,-65.39 -10.64,-63.40 -11.44,-60.65 -12.23,-57.90 -13.21,-55.13 -14.19,-52.37 -14.18,-49.85 -14.17,-47.34 -14.11,-44.60 -14.04,-41.87 -13.91,-39.47 -13.78,-37.07 -13.49,-34.62 -13.21,-32.17 -12.49,-29.34 -11.78,-26.52 -10.74,-23.65 -9.70,-20.77 -8.99,-18.38 -8.28,-15.98 -7.20,-14.01 -6.11,-12.03 -5.12,-10.35 -4.12,-8.66 -3.22,-7.04 -2.32,-5.41 -1.18,-4.06 -0.04,-2.70 0.54,-1.92 1.14,-1.14 1.26,-0.98 1.38,-0.83 1.46,-0.65 1.54,-0.48 1.57,-0.28 1.61,-0.09 1.59,0.09 1.58,0.29 1.52,0.47 1.47,0.66 1.37,0.82 1.27,0.99 1.13,1.13 0.99,1.27 0.82,1.37 0.66,1.47 0.47,1.52 0.29,1.58 0.09,1.59 -0.09,1.61 -0.28,1.57 -0.48,1.54 -0.65,1.46 -0.83,1.38 -0.98,1.26 -1.14,1.14 -1.14,1.14 L -1.14,1.14 Z"></path></g></g><g clip-path="url(#5Nr3iATMCdLbJ9G5kddbz)"><g transform="translate(1000.8650714854032 236.9547994350956) rotate(0 8.365396332092928 7.7678680226576375)" stroke="none"><path fill="#1e1e1e" d="M 1.61,0 Q 1.61,0 1.99,1.03 2.36,2.07 2.04,3.81 1.72,5.56 1.25,7.29 0.78,9.02 0.66,10.56 0.53,12.09 0.47,13.44 0.41,14.79 1.89,14.29 3.37,13.79 5.61,13.05 7.86,12.31 9.61,11.51 11.35,10.71 15.28,11.18 19.21,11.64 19.36,11.78 19.52,11.92 19.63,12.11 19.73,12.29 19.77,12.50 19.81,12.71 19.78,12.92 19.75,13.13 19.66,13.32 19.56,13.51 19.41,13.66 19.26,13.81 19.07,13.91 18.88,14.00 18.67,14.03 18.46,14.06 18.25,14.01 18.04,13.97 17.86,13.87 17.67,13.76 17.53,13.60 17.39,13.45 17.30,13.25 17.22,13.06 17.20,12.84 17.19,12.63 17.24,12.43 17.29,12.22 17.41,12.04 17.52,11.86 17.69,11.73 17.85,11.60 18.05,11.52 18.25,11.45 18.47,11.45 18.68,11.44 18.88,11.50 19.08,11.57 19.26,11.69 19.43,11.82 19.55,11.99 19.68,12.16 19.74,12.37 19.80,12.57 19.79,12.78 19.79,12.99 19.71,13.19 19.64,13.39 19.50,13.56 19.37,13.72 19.19,13.84 19.01,13.95 18.81,14.00 18.60,14.05 18.39,14.03 18.18,14.02 17.98,13.93 17.79,13.85 17.79,13.85 17.79,13.85 15.88,14.94 13.98,16.03 11.85,17.17 9.72,18.30 7.70,18.87 5.68,19.44 3.49,20.19 1.30,20.95 -0.42,20.82 -2.14,20.69 -3.40,19.33 -4.65,17.97 -4.79,16.21 -4.93,14.45 -4.81,12.96 -4.70,11.46 -4.41,9.52 -4.12,7.58 -3.60,6.01 -3.09,4.43 -2.73,3.24 -2.36,2.04 -1.99,1.02 -1.61,0 -1.59,-0.19 -1.56,-0.38 -1.49,-0.56 -1.42,-0.75 -1.31,-0.91 -1.20,-1.07 -1.06,-1.19 -0.91,-1.32 -0.74,-1.41 -0.57,-1.50 -0.38,-1.55 -0.19,-1.60 0.00,-1.60 0.19,-1.60 0.38,-1.55 0.57,-1.50 0.74,-1.41 0.91,-1.32 1.06,-1.19 1.20,-1.07 1.31,-0.91 1.42,-0.74 1.49,-0.56 1.56,-0.38 1.59,-0.19 1.61,0.00 1.61,0.00 L 1.61,0 Z"></path></g></g><g clip-path="url(#5Nr3iATMCdLbJ9G5kddbz)"><g transform="translate(943.0822190899557 124.67182729106668) rotate(0 53.71666717529297 12.5)"><text x="0" y="0" font-family="Virgil, Segoe UI Emoji" font-size="20px" fill="#1e1e1e" text-anchor="start" style="white-space: pre;" direction="ltr" dominant-baseline="text-before-edge">Fabrication</text></g></g><g clip-path="url(#5Nr3iATMCdLbJ9G5kddbz)"><g transform="translate(52.41915956509956 66.02619450533265) rotate(0 115.33333587646484 50)"><text x="0" y="0" font-family="Virgil, Segoe UI Emoji" font-size="20px" fill="#1e1e1e" text-anchor="start" style="white-space: pre;" direction="ltr" dominant-baseline="text-before-edge">DuckRabbit Logistico v1</text><text x="0" y="25" font-family="Virgil, Segoe UI Emoji" font-size="20px" fill="#1e1e1e" text-anchor="start" style="white-space: pre;" direction="ltr" dominant-baseline="text-before-edge">©2023-12-04</text><text x="0" y="50" font-family="Virgil, Segoe UI Emoji" font-size="20px" fill="#1e1e1e" text-anchor="start" style="white-space: pre;" direction="ltr" dominant-baseline="text-before-edge"></text><text x="0" y="75" font-family="Virgil, Segoe UI Emoji" font-size="20px" fill="#1e1e1e" text-anchor="start" style="white-space: pre;" direction="ltr" dominant-baseline="text-before-edge"></text></g></g><g transform="translate(10 10) rotate(0 59.45000076293945 8.75)"><text x="0" y="0" font-family="Assistant, Segoe UI Emoji" font-size="14px" fill="#999999" text-anchor="start" style="white-space: pre;" direction="ltr" dominant-baseline="text-before-edge">Duckrabbit Logistico</text></g><rect transform="translate(10 30.5) rotate(0 721.4150736500854 460.82945448002)" width="1442.830147300171px" height="921.65890896004px" rx="8" ry="8" fill="none" stroke="#bbb" stroke-width="2"></rect><g clip-path="url(#5Nr3iATMCdLbJ9G5kddbz)"><g stroke-linecap="round" transform="translate(442.72077662203446 556.6916981902035) rotate(0 13.041666984558105 17.5)"><path d="M6.52 0 C10.58 -0.44, 11.88 0.86, 19.56 0 M6.52 0 C10.89 0.44, 15.53 -0.48, 19.56 0 M19.56 0 C23.16 0.83, 25.69 0.29, 26.08 6.52 M19.56 0 C23.73 1.18, 25.49 4.4, 26.08 6.52 M26.08 6.52 C24.41 9.82, 26.03 15.84, 26.08 28.48 M26.08 6.52 C26.69 10.52, 26.39 15.22, 26.08 28.48 M26.08 28.48 C27.58 34.78, 22.11 36.96, 19.56 35 M26.08 28.48 C26.96 33.64, 26.2 35.09, 19.56 35 M19.56 35 C17.73 36.25, 14.66 34.35, 6.52 35 M19.56 35 C16.42 34.49, 12.9 34.45, 6.52 35 M6.52 35 C3.68 33.47, -0.41 31.06, 0 28.48 M6.52 35 C1.24 34.75, 0.81 34.17, 0 28.48 M0 28.48 C1.48 19.76, 0.46 11.11, 0 6.52 M0 28.48 C0.12 20.42, 0.61 11.16, 0 6.52 M0 6.52 C0.51 0.8, 2.84 -1.92, 6.52 0 M0 6.52 C-1.05 1.97, 2.32 -1.38, 6.52 0" stroke="#1e1e1e" stroke-width="2" fill="none"></path></g></g><g clip-path="url(#5Nr3iATMCdLbJ9G5kddbz)"><g stroke-linecap="round" transform="translate(510.39795633711003 569.4052947629764) rotate(0 13.041666984558105 17.5)"><path d="M6.52 0 C11.57 0.77, 17.17 0.22, 19.56 0 M6.52 0 C9.19 0.03, 12.26 -0.46, 19.56 0 M19.56 0 C23.18 -0.45, 24.33 2.55, 26.08 6.52 M19.56 0 C22.19 1.64, 26.23 0.33, 26.08 6.52 M26.08 6.52 C24.74 10.8, 25.61 16.51, 26.08 28.48 M26.08 6.52 C26.91 14.25, 26.72 23.61, 26.08 28.48 M26.08 28.48 C27.68 32.8, 22.04 34.49, 19.56 35 M26.08 28.48 C25.82 34.11, 24.65 36.5, 19.56 35 M19.56 35 C15.98 36.09, 11.07 34.15, 6.52 35 M19.56 35 C16.31 35.53, 12.75 34.64, 6.52 35 M6.52 35 C2.73 33.16, 1.29 33.48, 0 28.48 M6.52 35 C3.2 35.94, 2.12 31.15, 0 28.48 M0 28.48 C0.38 21.63, 1.26 11.31, 0 6.52 M0 28.48 C-0.25 22.06, -0.84 16.66, 0 6.52 M0 6.52 C0.92 2.59, 1.09 -1.68, 6.52 0 M0 6.52 C-1.27 0.66, 2.17 1.75, 6.52 0" stroke="#1e1e1e" stroke-width="2" fill="none"></path></g></g><g clip-path="url(#5Nr3iATMCdLbJ9G5kddbz)"><g stroke-linecap="round" transform="translate(492.3677559745911 617.4093021618702) rotate(0 13.041666984558105 17.5)"><path d="M6.52 0 C10.8 -0.04, 16.82 0.16, 19.56 0 M6.52 0 C11.27 -0.52, 16.43 -0.44, 19.56 0 M19.56 0 C25.34 0.13, 24.48 0.25, 26.08 6.52 M19.56 0 C24.48 -1.22, 24.48 1.95, 26.08 6.52 M26.08 6.52 C27.31 11.48, 27.61 16.64, 26.08 28.48 M26.08 6.52 C26.01 13.29, 25.77 21.82, 26.08 28.48 M26.08 28.48 C27.2 33.47, 25.22 35.67, 19.56 35 M26.08 28.48 C23.87 33.24, 25.27 36.88, 19.56 35 M19.56 35 C14.55 35.05, 11.69 35.99, 6.52 35 M19.56 35 C14.97 35.46, 11.79 35.33, 6.52 35 M6.52 35 C2.99 36.84, -1.46 34.15, 0 28.48 M6.52 35 C3.71 35.09, 0.6 34.19, 0 28.48 M0 28.48 C1.57 18.96, -0.06 11.43, 0 6.52 M0 28.48 C0.16 22.84, -0.89 17.74, 0 6.52 M0 6.52 C-1.32 2.17, 3.7 -0.98, 6.52 0 M0 6.52 C-1.69 3.58, 1.34 1.34, 6.52 0" stroke="#1e1e1e" stroke-width="2" fill="none"></path></g></g><g clip-path="url(#5Nr3iATMCdLbJ9G5kddbz)"><g stroke-linecap="round" transform="translate(450.9334092482545 600.9432558624947) rotate(0 13.041666984558105 17.5)"><path d="M6.52 0 C9.56 -0.58, 14.22 -1.24, 19.56 0 M6.52 0 C10.72 -0.61, 14.21 0.07, 19.56 0 M19.56 0 C22.85 -1.4, 25.89 1.64, 26.08 6.52 M19.56 0 C25.11 2.19, 27.37 0.97, 26.08 6.52 M26.08 6.52 C25.36 16.25, 25.85 20.92, 26.08 28.48 M26.08 6.52 C26.38 13.2, 26.39 17.62, 26.08 28.48 M26.08 28.48 C26.44 34.01, 25.55 35.3, 19.56 35 M26.08 28.48 C24.54 31.97, 22.31 35.18, 19.56 35 M19.56 35 C14.57 35.37, 9.84 35.85, 6.52 35 M19.56 35 C15.82 34.58, 11.32 35.49, 6.52 35 M6.52 35 C2.25 35.52, 1.19 34.24, 0 28.48 M6.52 35 C0.91 34.41, 1.66 31.24, 0 28.48 M0 28.48 C0.54 23.01, 0.5 14.61, 0 6.52 M0 28.48 C0.12 24.5, -0.37 18.26, 0 6.52 M0 6.52 C1.22 1.45, 3.34 -0.63, 6.52 0 M0 6.52 C1.72 0.67, 4.24 1.76, 6.52 0" stroke="#1e1e1e" stroke-width="2" fill="none"></path></g></g><g clip-path="url(#5Nr3iATMCdLbJ9G5kddbz)"><g stroke-linecap="round" transform="translate(479.0401129722345 526.3442422564303) rotate(0 13.041666984558105 17.5)"><path d="M6.52 0 C11.52 0.89, 17.12 0.32, 19.56 0 M6.52 0 C9.61 0.26, 13.12 0.13, 19.56 0 M19.56 0 C22.79 0.55, 24.24 3.47, 26.08 6.52 M19.56 0 C24.66 1.03, 27.02 4.29, 26.08 6.52 M26.08 6.52 C26.3 12.03, 27.41 17.9, 26.08 28.48 M26.08 6.52 C25.34 11.81, 25.64 16.61, 26.08 28.48 M26.08 28.48 C26.54 33.75, 24.33 33.91, 19.56 35 M26.08 28.48 C24.15 31.56, 22.4 35, 19.56 35 M19.56 35 C15.45 34.43, 10.51 34.49, 6.52 35 M19.56 35 C15.17 35.56, 9.39 35.11, 6.52 35 M6.52 35 C2.4 35.88, 0.53 32.2, 0 28.48 M6.52 35 C1.72 37.05, 0.83 30.78, 0 28.48 M0 28.48 C-0.79 24.78, -1.63 17.52, 0 6.52 M0 28.48 C0.65 21.07, -0.71 15.31, 0 6.52 M0 6.52 C-0.44 2.07, 0.98 -1.83, 6.52 0 M0 6.52 C1.53 2.78, 1.97 0.41, 6.52 0" stroke="#1e1e1e" stroke-width="2" fill="none"></path></g></g><g clip-path="url(#5Nr3iATMCdLbJ9G5kddbz)"><g stroke-linecap="round" transform="translate(923.7905521053972 318.0861130053518) rotate(0 13.041666984558105 17.5)"><path d="M6.52 0 C9.94 -1.33, 12.15 1.05, 19.56 0 M6.52 0 C9.81 0.47, 14.21 -0.49, 19.56 0 M19.56 0 C23 -1.54, 27.04 3.93, 26.08 6.52 M19.56 0 C22.16 1.41, 25.17 2.9, 26.08 6.52 M26.08 6.52 C25.85 11.31, 27.31 17.76, 26.08 28.48 M26.08 6.52 C26.3 13.77, 26.82 21.39, 26.08 28.48 M26.08 28.48 C26.64 32.13, 25.28 33.71, 19.56 35 M26.08 28.48 C26.94 33.91, 21.7 36.98, 19.56 35 M19.56 35 C14.11 35.57, 9.49 35.41, 6.52 35 M19.56 35 C15.03 35.23, 9.67 35.36, 6.52 35 M6.52 35 C4.05 33.08, -0.26 32.54, 0 28.48 M6.52 35 C0.93 36.82, -1.17 32.86, 0 28.48 M0 28.48 C0.03 23.54, -1 17.88, 0 6.52 M0 28.48 C-0.43 21.45, 0.41 16.7, 0 6.52 M0 6.52 C-1.78 3.97, 3.11 1.64, 6.52 0 M0 6.52 C1.18 1.48, 2.79 -1.47, 6.52 0" stroke="#1e1e1e" stroke-width="2" fill="none"></path></g></g><g clip-path="url(#5Nr3iATMCdLbJ9G5kddbz)"><g stroke-linecap="round" transform="translate(960.9638617682294 285.956336783433) rotate(0 13.041666984558105 17.5)"><path d="M6.52 0 C11.4 1.06, 16.3 1.25, 19.56 0 M6.52 0 C9.24 0.28, 12.85 -0.46, 19.56 0 M19.56 0 C24.95 0.4, 27.56 3.64, 26.08 6.52 M19.56 0 C22.78 1.28, 26.54 2.54, 26.08 6.52 M26.08 6.52 C23.96 13.56, 27.58 19.29, 26.08 28.48 M26.08 6.52 C26.72 10.69, 26.56 17.71, 26.08 28.48 M26.08 28.48 C25.27 34.33, 25.22 35.39, 19.56 35 M26.08 28.48 C28.32 35.01, 24.13 33.1, 19.56 35 M19.56 35 C16.4 35.82, 11.74 34.08, 6.52 35 M19.56 35 C14.87 35.19, 10.35 35.56, 6.52 35 M6.52 35 C1.6 33.26, 1.55 30.94, 0 28.48 M6.52 35 C3.45 33.84, 0.36 33.83, 0 28.48 M0 28.48 C-0.17 24.07, -0.75 13.85, 0 6.52 M0 28.48 C-0.29 22.53, -0.97 14.88, 0 6.52 M0 6.52 C-0.73 1.06, 0.61 0.04, 6.52 0 M0 6.52 C-1.03 2.68, 1.26 -2.29, 6.52 0" stroke="#1e1e1e" stroke-width="2" fill="none"></path></g></g><g clip-path="url(#5Nr3iATMCdLbJ9G5kddbz)"><g stroke-linecap="round" transform="translate(988.5761885425284 343.38712567675896) rotate(0 13.041666984558105 17.500000000000014)"><path d="M6.52 0 C11.08 1.22, 14.5 0.87, 19.56 0 M6.52 0 C11.31 0.41, 16.31 -0.39, 19.56 0 M19.56 0 C25.03 0.39, 26.4 2.9, 26.08 6.52 M19.56 0 C22.56 -0.38, 23.79 1.77, 26.08 6.52 M26.08 6.52 C27.07 15.09, 26.87 21.33, 26.08 28.48 M26.08 6.52 C27.04 14.52, 26.48 22.18, 26.08 28.48 M26.08 28.48 C27.98 33.02, 22.26 34.61, 19.56 35 M26.08 28.48 C28.12 30.95, 24.78 36.64, 19.56 35 M19.56 35 C17.13 36.38, 12.86 35.2, 6.52 35 M19.56 35 C14.5 35.47, 9.96 35.33, 6.52 35 M6.52 35 C1.16 35.31, 0.87 32.63, 0 28.48 M6.52 35 C0.32 33.79, -0.39 35.08, 0 28.48 M0 28.48 C0.15 23.18, -0.39 18.93, 0 6.52 M0 28.48 C-0.54 23.25, 0.04 19.15, 0 6.52 M0 6.52 C0.44 1.38, 0.19 -0.79, 6.52 0 M0 6.52 C-1.94 2.57, 1.37 0.88, 6.52 0" stroke="#1e1e1e" stroke-width="2" fill="none"></path></g></g><g clip-path="url(#5Nr3iATMCdLbJ9G5kddbz)"><g stroke-linecap="round" transform="translate(997.7194178436876 301.24436346710013) rotate(0 13.041666984558105 17.5)"><path d="M6.52 0 C9.21 0.6, 13.58 0.89, 19.56 0 M6.52 0 C11.52 0.03, 16.5 -0.46, 19.56 0 M19.56 0 C23.58 -1.99, 25.74 3.8, 26.08 6.52 M19.56 0 C21.62 -1.52, 27.47 2.4, 26.08 6.52 M26.08 6.52 C27.7 13.4, 27.37 23.22, 26.08 28.48 M26.08 6.52 C26.39 12.71, 26.1 21.44, 26.08 28.48 M26.08 28.48 C24.45 33.59, 25.33 34.23, 19.56 35 M26.08 28.48 C24.65 34.3, 25.64 37.28, 19.56 35 M19.56 35 C16.38 34.69, 10.35 36.07, 6.52 35 M19.56 35 C16.98 35.22, 14.13 34.41, 6.52 35 M6.52 35 C1.12 34.66, 1.96 31.9, 0 28.48 M6.52 35 C0.01 35.17, -0.06 33.15, 0 28.48 M0 28.48 C-0.38 21.82, -1.29 15.06, 0 6.52 M0 28.48 C-0.3 20.85, -0.3 14.37, 0 6.52 M0 6.52 C0.34 1.47, 2.94 -1.85, 6.52 0 M0 6.52 C2.02 2.27, 2.05 1.36, 6.52 0" stroke="#1e1e1e" stroke-width="2" fill="none"></path></g></g><g clip-path="url(#5Nr3iATMCdLbJ9G5kddbz)"><g stroke-linecap="round" transform="translate(958.3756273256895 363.96157791235294) rotate(0 13.041666984558105 17.499999999999986)"><path d="M6.52 0 C10.06 0.63, 15.13 0.11, 19.56 0 M6.52 0 C10.25 -0.09, 15.82 -0.63, 19.56 0 M19.56 0 C22.59 1.21, 26.28 3.18, 26.08 6.52 M19.56 0 C21.69 0.79, 28.19 1.23, 26.08 6.52 M26.08 6.52 C28.17 16.66, 26.42 21.34, 26.08 28.48 M26.08 6.52 C26.66 13.4, 25.89 18.22, 26.08 28.48 M26.08 28.48 C27.37 34.33, 25.89 35.19, 19.56 35 M26.08 28.48 C26.28 33.85, 25.42 34.34, 19.56 35 M19.56 35 C17.51 34.22, 14.21 35.44, 6.52 35 M19.56 35 C15.67 35.57, 11.69 34.32, 6.52 35 M6.52 35 C2.32 34.95, 0.28 32.23, 0 28.48 M6.52 35 C4.02 32.75, -0.23 31.98, 0 28.48 M0 28.48 C-0.72 23.56, -0.62 15.77, 0 6.52 M0 28.48 C-0.17 23.14, -0.74 17.92, 0 6.52 M0 6.52 C0.09 2.06, 3.35 1.25, 6.52 0 M0 6.52 C1.33 3.99, 0.14 0.6, 6.52 0" stroke="#1e1e1e" stroke-width="2" fill="none"></path></g></g><g clip-path="url(#5Nr3iATMCdLbJ9G5kddbz)"><g transform="translate(1284.1109325654927 241.30918196693284) rotate(0 47.37000274658203 12.5)"><text x="0" y="0" font-family="Virgil, Segoe UI Emoji" font-size="20px" fill="#1e1e1e" text-anchor="start" style="white-space: pre;" direction="ltr" dominant-baseline="text-before-edge">Opération</text></g></g><g clip-path="url(#5Nr3iATMCdLbJ9G5kddbz)"><g transform="translate(1202.5465048042413 121.3003987196376) rotate(0 16.383333206176758 25)"><text x="0" y="0" font-family="Virgil, Segoe UI Emoji" font-size="20px" fill="#1e1e1e" text-anchor="start" style="white-space: pre;" direction="ltr" dominant-baseline="text-before-edge">vue</text><text x="0" y="25" font-family="Virgil, Segoe UI Emoji" font-size="20px" fill="#1e1e1e" text-anchor="start" style="white-space: pre;" direction="ltr" dominant-baseline="text-before-edge"></text></g></g><g clip-path="url(#5Nr3iATMCdLbJ9G5kddbz)"><g stroke-linecap="round" transform="translate(384.6714512900369 487.34479990098623) rotate(0 100.82152755757653 99.84190870301143)"><path d="M126.25 25 C146.03 40.81, 158.84 52.71, 176.39 75 M126.25 25 C140.18 40.58, 150.81 51.13, 176.39 75 M176.39 75 C203.2 102.58, 201.77 99.72, 176.39 125 M176.39 75 C199.48 101.4, 200.27 101.22, 176.39 125 M176.39 125 C160.94 135.81, 148.45 151.07, 126.25 174.68 M176.39 125 C162.96 138.25, 150.86 152.33, 126.25 174.68 M126.25 174.68 C99.52 201.89, 97.63 199.81, 75.75 174.68 M126.25 174.68 C102.85 197.13, 104.26 195.11, 75.75 174.68 M75.75 174.68 C58.24 154, 33.87 135.25, 25.25 125 M75.75 174.68 C60.36 158.42, 43.24 143.29, 25.25 125 M25.25 125 C-3.39 99.28, -3.14 100.23, 25.25 75 M25.25 125 C0.33 99.72, 3.18 99.05, 25.25 75 M25.25 75 C39.96 57.87, 56.06 44.1, 75.75 25 M25.25 75 C39.18 65.14, 50.92 51.15, 75.75 25 M75.75 25 C98.84 -3.52, 97.95 -1.97, 126.25 25 M75.75 25 C97.04 -1.92, 100.26 -3.71, 126.25 25" stroke="#1e1e1e" stroke-width="2" fill="none"></path></g></g><g clip-path="url(#5Nr3iATMCdLbJ9G5kddbz)"><g stroke-linecap="round" transform="translate(882.5465048042408 239.87182729106615) rotate(0 95.71428571428578 95.7142857142857)"><path d="M120 24 C135.12 41.48, 153.7 58.13, 167.43 72 M120 24 C131.13 35.9, 142.25 46.86, 167.43 72 M167.43 72 C190.74 95.89, 193.33 94.39, 167.43 120 M167.43 72 C189.58 95.73, 190.38 96.17, 167.43 120 M167.43 120 C151.68 137.2, 137.2 151.17, 120 167.43 M167.43 120 C148.08 139.15, 130.91 157.74, 120 167.43 M120 167.43 C97.58 190.95, 94.87 192.92, 72 167.43 M120 167.43 C93.79 192.21, 94.35 190.13, 72 167.43 M72 167.43 C59.06 152.49, 40.84 137.75, 24 120 M72 167.43 C53.01 150.02, 34.87 131.38, 24 120 M24 120 C1.76 97.11, 0.51 96.2, 24 72 M24 120 C0.33 96.75, -2.07 96.27, 24 72 M24 72 C39.24 56.7, 51.03 44.01, 72 24 M24 72 C37.67 58.44, 53.28 43.75, 72 24 M72 24 C94.24 -0.41, 95.15 -1.52, 120 24 M72 24 C97 0.14, 97.08 -1.66, 120 24" stroke="#1e1e1e" stroke-width="2" fill="none"></path></g></g><g clip-path="url(#5Nr3iATMCdLbJ9G5kddbz)"><g stroke-linecap="round" transform="translate(1138.2607905185266 59.871827291066154) rotate(0 19.285714285714334 17.85714285714286)"><path d="M8.93 0 C13.29 0.28, 19.4 1.06, 29.64 0 M8.93 0 C14.28 0.91, 19.65 1.01, 29.64 0 M29.64 0 C33.77 0.28, 37.78 2.73, 38.57 8.93 M29.64 0 C36.66 -0.89, 40.6 0.81, 38.57 8.93 M38.57 8.93 C39.44 12.55, 38.38 18.19, 38.57 26.79 M38.57 8.93 C38.96 16.26, 38.21 22.57, 38.57 26.79 M38.57 26.79 C36.97 34.7, 35.51 35.38, 29.64 35.71 M38.57 26.79 C38.45 35.04, 36.09 37.45, 29.64 35.71 M29.64 35.71 C27.03 36.9, 20.65 36.11, 8.93 35.71 M29.64 35.71 C22.85 35.57, 17.26 35.52, 8.93 35.71 M8.93 35.71 C1.8 36.62, -1.71 32.62, 0 26.79 M8.93 35.71 C5.05 37.9, 1.65 31.98, 0 26.79 M0 26.79 C1.47 19.41, 1.64 14.16, 0 8.93 M0 26.79 C0.56 23.35, 0.18 18.36, 0 8.93 M0 8.93 C-1.66 3.48, 3.23 1.3, 8.93 0 M0 8.93 C-1.12 4.04, 4.16 0.28, 8.93 0" stroke="#1e1e1e" stroke-width="2" fill="none"></path></g></g><g clip-path="url(#5Nr3iATMCdLbJ9G5kddbz)"><g transform="translate(1191.1179333756697 64.15754157678043) rotate(0 96.04166412353516 25)"><text x="0" y="0" font-family="Virgil, Segoe UI Emoji" font-size="20px" fill="#1e1e1e" text-anchor="start" style="white-space: pre;" direction="ltr" dominant-baseline="text-before-edge">emplacement interne</text><text x="0" y="25" font-family="Virgil, Segoe UI Emoji" font-size="20px" fill="#1e1e1e" text-anchor="start" style="white-space: pre;" direction="ltr" dominant-baseline="text-before-edge"></text></g></g><g clip-path="url(#5Nr3iATMCdLbJ9G5kddbz)"><g stroke-linecap="round" transform="translate(1155.403647661384 112.72897014820902) rotate(0 18.571428571428555 22.857142857142847)"><path d="M23.75 5.75 C26.65 10.65, 28.36 12.93, 32.39 17.25 M23.75 5.75 C26.96 9.94, 30.97 14.3, 32.39 17.25 M32.39 17.25 C37.54 22.4, 37.73 22.95, 32.39 28.75 M32.39 17.25 C36.56 22.58, 35.48 22.04, 32.39 28.75 M32.39 28.75 C29.76 32.65, 25.11 35.98, 23.75 39.96 M32.39 28.75 C30.15 32.32, 26.32 36.29, 23.75 39.96 M23.75 39.96 C20.29 44.77, 18.29 47, 14.25 39.96 M23.75 39.96 C18.78 46.98, 19.03 47.09, 14.25 39.96 M14.25 39.96 C11.43 36.82, 8.13 32.68, 4.75 28.75 M14.25 39.96 C11.22 36.52, 9.17 34.36, 4.75 28.75 M4.75 28.75 C-1.81 21.89, 0.26 23.9, 4.75 17.25 M4.75 28.75 C-0.78 20.94, -1.17 22.73, 4.75 17.25 M4.75 17.25 C6.62 12.59, 10.46 10.46, 14.25 5.75 M4.75 17.25 C7.3 14.69, 9.47 13.19, 14.25 5.75 M14.25 5.75 C17.06 -0.09, 20.61 -1.34, 23.75 5.75 M14.25 5.75 C17.67 -1.07, 19.58 -1.48, 23.75 5.75" stroke="#1e1e1e" stroke-width="2" fill="none"></path></g></g><g clip-path="url(#5Nr3iATMCdLbJ9G5kddbz)"><g stroke-linecap="round" transform="translate(1188.2607905185268 175.58611300535188) rotate(0 17.85714285714289 17.85714285714286)"><path d="M14.28 0.31 C17.8 -0.53, 23.09 0.91, 26.46 2.73 C29.84 4.54, 33.18 7.68, 34.52 11.2 C35.87 14.72, 35.77 20.19, 34.53 23.85 C33.3 27.5, 30.43 31.17, 27.12 33.14 C23.8 35.1, 18.46 36.23, 14.65 35.65 C10.83 35.06, 6.62 32.65, 4.22 29.63 C1.83 26.62, 0.32 21.44, 0.27 17.56 C0.22 13.68, 1.49 9.31, 3.91 6.34 C6.33 3.36, 12.77 0.79, 14.79 -0.27 C16.81 -1.33, 15.9 -0.45, 16.03 -0.03 M19.83 -0.39 C23.44 -0.38, 27.26 2.03, 29.82 4.82 C32.38 7.6, 34.72 12.45, 35.21 16.33 C35.71 20.21, 34.95 24.9, 32.79 28.1 C30.62 31.3, 25.9 34.56, 22.21 35.53 C18.53 36.5, 14.09 35.59, 10.67 33.93 C7.26 32.26, 3.34 28.92, 1.72 25.54 C0.11 22.16, -0.12 17.36, 0.97 13.63 C2.06 9.91, 5.13 5.46, 8.25 3.17 C11.37 0.89, 17.78 0.45, 19.71 -0.07 C21.63 -0.59, 19.87 -0.34, 19.82 0.05" stroke="#1e1e1e" stroke-width="2" fill="none"></path></g></g><g clip-path="url(#5Nr3iATMCdLbJ9G5kddbz)"><g transform="translate(1235.403647661384 178.4432558624947) rotate(0 94.79166412353516 12.5)"><text x="0" y="0" font-family="Virgil, Segoe UI Emoji" font-size="20px" fill="#1e1e1e" text-anchor="start" style="white-space: pre;" direction="ltr" dominant-baseline="text-before-edge">emplacement virtuel</text></g></g><g clip-path="url(#5Nr3iATMCdLbJ9G5kddbz)"><g stroke-linecap="round"><g transform="translate(1229.26512434705 253.96590694041964) rotate(0 24.891559114523943 0.8812984629094558)"><path d="M0 0 C8.3 0.29, 41.49 1.47, 49.78 1.76 M0 0 C8.3 0.29, 41.49 1.47, 49.78 1.76" stroke="#1e1e1e" stroke-width="2" fill="none"></path></g><g transform="translate(1229.26512434705 253.96590694041964) rotate(0 24.891559114523943 0.8812984629094558)"><path d="M26.09 9.45 C33.51 7.04, 40.93 4.63, 49.78 1.76 M26.09 9.45 C32.28 7.44, 38.48 5.43, 49.78 1.76" stroke="#1e1e1e" stroke-width="2" fill="none"></path></g><g transform="translate(1229.26512434705 253.96590694041964) rotate(0 24.891559114523943 0.8812984629094558)"><path d="M26.69 -7.58 C33.93 -4.65, 41.16 -1.73, 49.78 1.76 M26.69 -7.58 C32.73 -5.14, 38.76 -2.7, 49.78 1.76" stroke="#1e1e1e" stroke-width="2" fill="none"></path></g></g><mask></mask></g></svg>