<svg version="1.1" xmlns="http://www.w3.org/2000/svg" viewBox="0 0 1978.0237426134584 1609.4933132463389" width="3956.0474852269167" height="3218.9866264926777">
  <!-- svg-source:excalidraw -->
  
  <defs>
    <style class="style-fonts">
      @font-face {
        font-family: "Virgil";
        src: url("https://excalidraw.com/Virgil.woff2");
      }
      @font-face {
        font-family: "Cascadia";
        src: url("https://excalidraw.com/Cascadia.woff2");
      }
      @font-face {
        font-family: "Assistant";
        src: url("https://excalidraw.com/Assistant-Regular.woff2");
      }
    </style>
    <clipPath id="5Nr3iATMCdLbJ9G5kddbz">
            <rect transform="translate(10.000000000000057 30.5) rotate(0 898.5579307929427 581.1949402955127)" width="1797.1158615858853" height="1162.3898805910253">
          </rect>
        </clipPath>
  </defs>
  <rect x="0" y="0" width="1978.0237426134584" height="1609.4933132463389" fill="#ffffff"></rect><g clip-path="url(#5Nr3iATMCdLbJ9G5kddbz)"><g stroke-linecap="round" transform="translate(120.15364766138481 961.4027989220517) rotate(0 43 46)"><path d="M57.32 3.03 C64.48 5.09, 73 11.66, 77.82 18.29 C82.63 24.93, 85.66 34.76, 86.23 42.83 C86.8 50.9, 85 59.52, 81.24 66.72 C77.47 73.91, 70.47 81.89, 63.64 86 C56.82 90.1, 47.93 91.84, 40.28 91.35 C32.63 90.85, 24.06 87.66, 17.74 83.04 C11.43 78.42, 5.1 71.44, 2.38 63.63 C-0.34 55.81, -0.17 44.4, 1.42 36.16 C3.01 27.93, 6.5 20.19, 11.9 14.23 C17.29 8.27, 25.3 2.02, 33.82 0.41 C42.34 -1.2, 57.59 3.22, 63.02 4.56 C68.45 5.9, 66.91 7.56, 66.38 8.47 M55.1 2.25 C62.59 4.13, 71.02 10.93, 76.12 16.86 C81.21 22.78, 84.4 29.75, 85.68 37.8 C86.96 45.85, 86.92 57.5, 83.77 65.16 C80.63 72.81, 73.45 79.05, 66.83 83.75 C60.2 88.44, 51.69 93.01, 44.04 93.34 C36.4 93.67, 27.51 90.6, 20.95 85.74 C14.4 80.87, 8.39 72.01, 4.72 64.17 C1.05 56.32, -1.89 46.74, -1.07 38.67 C-0.25 30.6, 4.44 22.04, 9.62 15.74 C14.81 9.44, 22.43 3.04, 30.04 0.88 C37.65 -1.28, 51.17 2.41, 55.28 2.79 C59.39 3.17, 54.95 2.47, 54.72 3.17" stroke="#1e1e1e" stroke-width="2" fill="none"></path></g></g><g clip-path="url(#5Nr3iATMCdLbJ9G5kddbz)"><g transform="translate(105.01079051852759 1077.2599417791946) rotate(0 54.42993927001953 12.5)"><text x="0" y="0" font-family="Virgil, Segoe UI Emoji" font-size="20px" fill="#1e1e1e" text-anchor="start" style="white-space: pre;" direction="ltr" dominant-baseline="text-before-edge">Fournisseur</text></g></g><g clip-path="url(#5Nr3iATMCdLbJ9G5kddbz)"><g stroke-linecap="round"><g transform="translate(218.79614526269037 1008.0904461648017) rotate(0 140.85515386290984 -14.524469529811142)"><path d="M0.57 0.21 C47.19 -4.77, 233.8 -25.33, 280.56 -30.24 M-0.58 -0.73 C46.31 -5.57, 235.89 -24.78, 282.67 -29.32" stroke="#1e1e1e" stroke-width="2" fill="none"></path></g><g transform="translate(218.79614526269037 1008.0904461648017) rotate(0 140.85515386290984 -14.524469529811142)"><path d="M260.14 -18.49 C268.87 -24.52, 274.89 -27.54, 282.67 -29.32 M260.14 -18.49 C266.62 -22.64, 273.57 -24.9, 282.67 -29.32" stroke="#1e1e1e" stroke-width="2" fill="none"></path></g><g transform="translate(218.79614526269037 1008.0904461648017) rotate(0 140.85515386290984 -14.524469529811142)"><path d="M258.45 -35.5 C267.74 -35.25, 274.39 -31.96, 282.67 -29.32 M258.45 -35.5 C265.31 -34.8, 272.75 -32.19, 282.67 -29.32" stroke="#1e1e1e" stroke-width="2" fill="none"></path></g></g><mask></mask></g><g clip-path="url(#5Nr3iATMCdLbJ9G5kddbz)"><g transform="translate(846.9044674319603 588.2423983285464) rotate(0 109.37986755371094 12.5)"><text x="0" y="0" font-family="Virgil, Segoe UI Emoji" font-size="20px" fill="#1e1e1e" text-anchor="start" style="white-space: pre;" direction="ltr" dominant-baseline="text-before-edge">Reserve Petit Produit</text></g></g><g clip-path="url(#5Nr3iATMCdLbJ9G5kddbz)"><g stroke-linecap="round" transform="translate(1539.296504804242 719.1170846363375) rotate(0 78 78)"><path d="M81.79 -0.19 C92.07 -0.71, 104.7 3.96, 114.15 8.74 C123.6 13.53, 132.06 20.44, 138.48 28.52 C144.91 36.6, 149.99 46.83, 152.68 57.22 C155.36 67.61, 156.27 80.45, 154.6 90.86 C152.94 101.26, 148.28 110.89, 142.68 119.64 C137.08 128.38, 129.59 137.34, 120.99 143.33 C112.38 149.32, 101.51 153.97, 91.04 155.59 C80.57 157.2, 68.55 155.79, 58.17 153.04 C47.78 150.28, 37.06 145.53, 28.74 139.03 C20.42 132.53, 12.95 123.44, 8.26 114.01 C3.58 104.58, 1.24 93.03, 0.62 82.46 C-0.01 71.89, 0.73 60.53, 4.54 50.58 C8.35 40.62, 15.76 30.34, 23.47 22.73 C31.17 15.12, 39.49 8.65, 50.79 4.91 C62.09 1.16, 83.3 0.37, 91.27 0.27 C99.23 0.17, 98.96 2.79, 98.57 4.29 M78.15 0.92 C87.82 -0.09, 98.16 3.3, 107.72 7.57 C117.27 11.83, 127.89 18.75, 135.47 26.51 C143.04 34.26, 149.75 44.32, 153.17 54.1 C156.59 63.89, 157.08 74.71, 155.98 85.24 C154.88 95.77, 151.68 108.04, 146.56 117.28 C141.43 126.53, 134.1 134.4, 125.25 140.71 C116.4 147.02, 104.15 152.97, 93.45 155.13 C82.75 157.3, 70.92 155.96, 61.03 153.72 C51.14 151.49, 42.58 147.82, 34.09 141.7 C25.59 135.58, 15.5 125.95, 10.07 117.01 C4.64 108.06, 2.45 98.61, 1.52 88.05 C0.59 77.5, 1.43 63.96, 4.49 53.66 C7.55 43.36, 12.86 34.27, 19.89 26.25 C26.92 18.23, 37.16 10.11, 46.66 5.54 C56.15 0.98, 71.5 -0.59, 76.86 -1.14 C82.22 -1.69, 78.56 0.8, 78.81 2.23" stroke="#1e1e1e" stroke-width="2" fill="none"></path></g></g><g clip-path="url(#5Nr3iATMCdLbJ9G5kddbz)"><g stroke-linecap="round"><g transform="translate(1334.5969585197436 459.4270843255611) rotate(0 113.86311773900161 139.17205330572205)"><path d="M0.15 -0.09 C38.27 46.31, 189.71 231.06, 227.66 277.59 M-1.24 -1.18 C36.82 45.42, 188.61 232.34, 226.68 278.73" stroke="#1e1e1e" stroke-width="2" fill="none"></path></g><g transform="translate(1334.5969585197436 459.4270843255611) rotate(0 113.86311773900161 139.17205330572205)"><path d="M205.2 265.93 C209.49 268.48, 212.89 271.51, 226.68 278.73 M205.2 265.93 C213.69 270.23, 220.31 275.12, 226.68 278.73" stroke="#1e1e1e" stroke-width="2" fill="none"></path></g><g transform="translate(1334.5969585197436 459.4270843255611) rotate(0 113.86311773900161 139.17205330572205)"><path d="M218.45 255.12 C219.88 259.96, 220.49 265.27, 226.68 278.73 M218.45 255.12 C222.13 263.34, 223.94 272.16, 226.68 278.73" stroke="#1e1e1e" stroke-width="2" fill="none"></path></g></g><mask></mask></g><g clip-path="url(#5Nr3iATMCdLbJ9G5kddbz)"><g transform="translate(1231.2965048042417 497.5456560649088) rotate(0 30.559967041015625 12.5)"><text x="0" y="0" font-family="Virgil, Segoe UI Emoji" font-size="20px" fill="#1e1e1e" text-anchor="start" style="white-space: pre;" direction="ltr" dominant-baseline="text-before-edge">Picking</text></g></g><g clip-path="url(#5Nr3iATMCdLbJ9G5kddbz)"><g transform="translate(1596.2551312460391 888.9846360662655) rotate(0 27.049972534179688 12.5)"><text x="0" y="0" font-family="Virgil, Segoe UI Emoji" font-size="20px" fill="#1e1e1e" text-anchor="start" style="white-space: pre;" direction="ltr" dominant-baseline="text-before-edge">Client</text></g></g><g clip-path="url(#5Nr3iATMCdLbJ9G5kddbz)"><g transform="translate(326.5822190899565 945.8313703506232) rotate(0 45.719947814941406 12.5)"><text x="0" y="0" font-family="Virgil, Segoe UI Emoji" font-size="20px" fill="#1e1e1e" text-anchor="start" style="white-space: pre;" direction="ltr" dominant-baseline="text-before-edge">Reception</text></g></g><g clip-path="url(#5Nr3iATMCdLbJ9G5kddbz)"><g transform="translate(1049.957762294094 469.4471419044985) rotate(0 45.95994567871094 12.5)"><text x="0" y="0" font-family="Virgil, Segoe UI Emoji" font-size="20px" fill="#1e1e1e" text-anchor="start" style="white-space: pre;" direction="ltr" dominant-baseline="text-before-edge">Réassort</text></g></g><g clip-path="url(#5Nr3iATMCdLbJ9G5kddbz)"><g transform="translate(1457.1536476613849 558.5456560649089) rotate(0 42.20995330810547 12.5)"><text x="0" y="0" font-family="Virgil, Segoe UI Emoji" font-size="20px" fill="#1e1e1e" text-anchor="start" style="white-space: pre;" direction="ltr" dominant-baseline="text-before-edge">Livraison</text></g></g><g clip-path="url(#5Nr3iATMCdLbJ9G5kddbz)"><g transform="translate(37.91195956028042 57.01179449569395) rotate(0 115.31986999511719 50)"><text x="0" y="0" font-family="Virgil, Segoe UI Emoji" font-size="20px" fill="#1e1e1e" text-anchor="start" style="white-space: pre;" direction="ltr" dominant-baseline="text-before-edge">DuckRabbit Logistico v1</text><text x="0" y="25" font-family="Virgil, Segoe UI Emoji" font-size="20px" fill="#1e1e1e" text-anchor="start" style="white-space: pre;" direction="ltr" dominant-baseline="text-before-edge">©2023-12-04</text><text x="0" y="50" font-family="Virgil, Segoe UI Emoji" font-size="20px" fill="#1e1e1e" text-anchor="start" style="white-space: pre;" direction="ltr" dominant-baseline="text-before-edge"></text><text x="0" y="75" font-family="Virgil, Segoe UI Emoji" font-size="20px" fill="#1e1e1e" text-anchor="start" style="white-space: pre;" direction="ltr" dominant-baseline="text-before-edge"></text></g></g><g transform="translate(10.000000000000057 10) rotate(0 59.443763732910156 8.75)"><text x="0" y="0" font-family="Assistant, Segoe UI Emoji" font-size="14px" fill="#999999" text-anchor="start" style="white-space: pre;" direction="ltr" dominant-baseline="text-before-edge">Duckrabbit Logistico</text></g><rect transform="translate(10.000000000000057 30.5) rotate(0 898.5579307929427 581.1949402955127)" width="1797.1158615858853px" height="1162.3898805910253px" rx="8" ry="8" fill="none" stroke="#bbb" stroke-width="2"></rect><g clip-path="url(#5Nr3iATMCdLbJ9G5kddbz)"><g stroke-linecap="round" transform="translate(738.4350623363202 623.1369555354744) rotate(0 13.041666984558105 17.5)"><path d="M6.52 0 C10.58 -0.44, 11.88 0.86, 19.56 0 M6.52 0 C10.89 0.44, 15.53 -0.48, 19.56 0 M19.56 0 C23.16 0.83, 25.69 0.29, 26.08 6.52 M19.56 0 C23.73 1.18, 25.49 4.4, 26.08 6.52 M26.08 6.52 C24.41 9.82, 26.03 15.84, 26.08 28.48 M26.08 6.52 C26.69 10.52, 26.39 15.22, 26.08 28.48 M26.08 28.48 C27.58 34.78, 22.11 36.96, 19.56 35 M26.08 28.48 C26.96 33.64, 26.2 35.09, 19.56 35 M19.56 35 C17.73 36.25, 14.66 34.35, 6.52 35 M19.56 35 C16.42 34.49, 12.9 34.45, 6.52 35 M6.52 35 C3.68 33.47, -0.41 31.06, 0 28.48 M6.52 35 C1.24 34.75, 0.81 34.17, 0 28.48 M0 28.48 C1.48 19.76, 0.46 11.11, 0 6.52 M0 28.48 C0.12 20.42, 0.61 11.16, 0 6.52 M0 6.52 C0.51 0.8, 2.84 -1.92, 6.52 0 M0 6.52 C-1.05 1.97, 2.32 -1.38, 6.52 0" stroke="#1e1e1e" stroke-width="2" fill="none"></path></g></g><g clip-path="url(#5Nr3iATMCdLbJ9G5kddbz)"><g stroke-linecap="round" transform="translate(806.1122420513959 635.8505521082473) rotate(0 13.041666984558105 17.5)"><path d="M6.52 0 C11.57 0.77, 17.17 0.22, 19.56 0 M6.52 0 C9.19 0.03, 12.26 -0.46, 19.56 0 M19.56 0 C23.18 -0.45, 24.33 2.55, 26.08 6.52 M19.56 0 C22.19 1.64, 26.23 0.33, 26.08 6.52 M26.08 6.52 C24.74 10.8, 25.61 16.51, 26.08 28.48 M26.08 6.52 C26.91 14.25, 26.72 23.61, 26.08 28.48 M26.08 28.48 C27.68 32.8, 22.04 34.49, 19.56 35 M26.08 28.48 C25.82 34.11, 24.65 36.5, 19.56 35 M19.56 35 C15.98 36.09, 11.07 34.15, 6.52 35 M19.56 35 C16.31 35.53, 12.75 34.64, 6.52 35 M6.52 35 C2.73 33.16, 1.29 33.48, 0 28.48 M6.52 35 C3.2 35.94, 2.12 31.15, 0 28.48 M0 28.48 C0.38 21.63, 1.26 11.31, 0 6.52 M0 28.48 C-0.25 22.06, -0.84 16.66, 0 6.52 M0 6.52 C0.92 2.59, 1.09 -1.68, 6.52 0 M0 6.52 C-1.27 0.66, 2.17 1.75, 6.52 0" stroke="#1e1e1e" stroke-width="2" fill="none"></path></g></g><g clip-path="url(#5Nr3iATMCdLbJ9G5kddbz)"><g stroke-linecap="round" transform="translate(788.0820416888769 683.8545595071411) rotate(0 13.041666984558105 17.5)"><path d="M6.52 0 C10.8 -0.04, 16.82 0.16, 19.56 0 M6.52 0 C11.27 -0.52, 16.43 -0.44, 19.56 0 M19.56 0 C25.34 0.13, 24.48 0.25, 26.08 6.52 M19.56 0 C24.48 -1.22, 24.48 1.95, 26.08 6.52 M26.08 6.52 C27.31 11.48, 27.61 16.64, 26.08 28.48 M26.08 6.52 C26.01 13.29, 25.77 21.82, 26.08 28.48 M26.08 28.48 C27.2 33.47, 25.22 35.67, 19.56 35 M26.08 28.48 C23.87 33.24, 25.27 36.88, 19.56 35 M19.56 35 C14.55 35.05, 11.69 35.99, 6.52 35 M19.56 35 C14.97 35.46, 11.79 35.33, 6.52 35 M6.52 35 C2.99 36.84, -1.46 34.15, 0 28.48 M6.52 35 C3.71 35.09, 0.6 34.19, 0 28.48 M0 28.48 C1.57 18.96, -0.06 11.43, 0 6.52 M0 28.48 C0.16 22.84, -0.89 17.74, 0 6.52 M0 6.52 C-1.32 2.17, 3.7 -0.98, 6.52 0 M0 6.52 C-1.69 3.58, 1.34 1.34, 6.52 0" stroke="#1e1e1e" stroke-width="2" fill="none"></path></g></g><g clip-path="url(#5Nr3iATMCdLbJ9G5kddbz)"><g stroke-linecap="round" transform="translate(746.6476949625403 667.3885132077655) rotate(0 13.041666984558105 17.5)"><path d="M6.52 0 C9.56 -0.58, 14.22 -1.24, 19.56 0 M6.52 0 C10.72 -0.61, 14.21 0.07, 19.56 0 M19.56 0 C22.85 -1.4, 25.89 1.64, 26.08 6.52 M19.56 0 C25.11 2.19, 27.37 0.97, 26.08 6.52 M26.08 6.52 C25.36 16.25, 25.85 20.92, 26.08 28.48 M26.08 6.52 C26.38 13.2, 26.39 17.62, 26.08 28.48 M26.08 28.48 C26.44 34.01, 25.55 35.3, 19.56 35 M26.08 28.48 C24.54 31.97, 22.31 35.18, 19.56 35 M19.56 35 C14.57 35.37, 9.84 35.85, 6.52 35 M19.56 35 C15.82 34.58, 11.32 35.49, 6.52 35 M6.52 35 C2.25 35.52, 1.19 34.24, 0 28.48 M6.52 35 C0.91 34.41, 1.66 31.24, 0 28.48 M0 28.48 C0.54 23.01, 0.5 14.61, 0 6.52 M0 28.48 C0.12 24.5, -0.37 18.26, 0 6.52 M0 6.52 C1.22 1.45, 3.34 -0.63, 6.52 0 M0 6.52 C1.72 0.67, 4.24 1.76, 6.52 0" stroke="#1e1e1e" stroke-width="2" fill="none"></path></g></g><g clip-path="url(#5Nr3iATMCdLbJ9G5kddbz)"><g stroke-linecap="round" transform="translate(774.7543986865203 592.7894996017012) rotate(0 13.041666984558105 17.5)"><path d="M6.52 0 C11.52 0.89, 17.12 0.32, 19.56 0 M6.52 0 C9.61 0.26, 13.12 0.13, 19.56 0 M19.56 0 C22.79 0.55, 24.24 3.47, 26.08 6.52 M19.56 0 C24.66 1.03, 27.02 4.29, 26.08 6.52 M26.08 6.52 C26.3 12.03, 27.41 17.9, 26.08 28.48 M26.08 6.52 C25.34 11.81, 25.64 16.61, 26.08 28.48 M26.08 28.48 C26.54 33.75, 24.33 33.91, 19.56 35 M26.08 28.48 C24.15 31.56, 22.4 35, 19.56 35 M19.56 35 C15.45 34.43, 10.51 34.49, 6.52 35 M19.56 35 C15.17 35.56, 9.39 35.11, 6.52 35 M6.52 35 C2.4 35.88, 0.53 32.2, 0 28.48 M6.52 35 C1.72 37.05, 0.83 30.78, 0 28.48 M0 28.48 C-0.79 24.78, -1.63 17.52, 0 6.52 M0 28.48 C0.65 21.07, -0.71 15.31, 0 6.52 M0 6.52 C-0.44 2.07, 0.98 -1.83, 6.52 0 M0 6.52 C1.53 2.78, 1.97 0.41, 6.52 0" stroke="#1e1e1e" stroke-width="2" fill="none"></path></g></g><g clip-path="url(#5Nr3iATMCdLbJ9G5kddbz)"><g stroke-linecap="round" transform="translate(1219.504837819683 384.5313703506227) rotate(0 13.041666984558105 17.5)"><path d="M6.52 0 C9.94 -1.33, 12.15 1.05, 19.56 0 M6.52 0 C9.81 0.47, 14.21 -0.49, 19.56 0 M19.56 0 C23 -1.54, 27.04 3.93, 26.08 6.52 M19.56 0 C22.16 1.41, 25.17 2.9, 26.08 6.52 M26.08 6.52 C25.85 11.31, 27.31 17.76, 26.08 28.48 M26.08 6.52 C26.3 13.77, 26.82 21.39, 26.08 28.48 M26.08 28.48 C26.64 32.13, 25.28 33.71, 19.56 35 M26.08 28.48 C26.94 33.91, 21.7 36.98, 19.56 35 M19.56 35 C14.11 35.57, 9.49 35.41, 6.52 35 M19.56 35 C15.03 35.23, 9.67 35.36, 6.52 35 M6.52 35 C4.05 33.08, -0.26 32.54, 0 28.48 M6.52 35 C0.93 36.82, -1.17 32.86, 0 28.48 M0 28.48 C0.03 23.54, -1 17.88, 0 6.52 M0 28.48 C-0.43 21.45, 0.41 16.7, 0 6.52 M0 6.52 C-1.78 3.97, 3.11 1.64, 6.52 0 M0 6.52 C1.18 1.48, 2.79 -1.47, 6.52 0" stroke="#1e1e1e" stroke-width="2" fill="none"></path></g></g><g clip-path="url(#5Nr3iATMCdLbJ9G5kddbz)"><g stroke-linecap="round" transform="translate(1256.6781474825152 352.4015941287039) rotate(0 13.041666984558105 17.5)"><path d="M6.52 0 C11.4 1.06, 16.3 1.25, 19.56 0 M6.52 0 C9.24 0.28, 12.85 -0.46, 19.56 0 M19.56 0 C24.95 0.4, 27.56 3.64, 26.08 6.52 M19.56 0 C22.78 1.28, 26.54 2.54, 26.08 6.52 M26.08 6.52 C23.96 13.56, 27.58 19.29, 26.08 28.48 M26.08 6.52 C26.72 10.69, 26.56 17.71, 26.08 28.48 M26.08 28.48 C25.27 34.33, 25.22 35.39, 19.56 35 M26.08 28.48 C28.32 35.01, 24.13 33.1, 19.56 35 M19.56 35 C16.4 35.82, 11.74 34.08, 6.52 35 M19.56 35 C14.87 35.19, 10.35 35.56, 6.52 35 M6.52 35 C1.6 33.26, 1.55 30.94, 0 28.48 M6.52 35 C3.45 33.84, 0.36 33.83, 0 28.48 M0 28.48 C-0.17 24.07, -0.75 13.85, 0 6.52 M0 28.48 C-0.29 22.53, -0.97 14.88, 0 6.52 M0 6.52 C-0.73 1.06, 0.61 0.04, 6.52 0 M0 6.52 C-1.03 2.68, 1.26 -2.29, 6.52 0" stroke="#1e1e1e" stroke-width="2" fill="none"></path></g></g><g clip-path="url(#5Nr3iATMCdLbJ9G5kddbz)"><g stroke-linecap="round" transform="translate(1284.2904742568142 409.83238302202983) rotate(0 13.041666984558105 17.5)"><path d="M6.52 0 C11.08 1.22, 14.5 0.87, 19.56 0 M6.52 0 C11.31 0.41, 16.31 -0.39, 19.56 0 M19.56 0 C25.03 0.39, 26.4 2.9, 26.08 6.52 M19.56 0 C22.56 -0.38, 23.79 1.77, 26.08 6.52 M26.08 6.52 C27.07 15.09, 26.87 21.33, 26.08 28.48 M26.08 6.52 C27.04 14.52, 26.48 22.18, 26.08 28.48 M26.08 28.48 C27.98 33.02, 22.26 34.61, 19.56 35 M26.08 28.48 C28.12 30.95, 24.78 36.64, 19.56 35 M19.56 35 C17.13 36.38, 12.86 35.2, 6.52 35 M19.56 35 C14.5 35.47, 9.96 35.33, 6.52 35 M6.52 35 C1.16 35.31, 0.87 32.63, 0 28.48 M6.52 35 C0.32 33.79, -0.39 35.08, 0 28.48 M0 28.48 C0.15 23.18, -0.39 18.93, 0 6.52 M0 28.48 C-0.54 23.25, 0.04 19.15, 0 6.52 M0 6.52 C0.44 1.38, 0.19 -0.79, 6.52 0 M0 6.52 C-1.94 2.57, 1.37 0.88, 6.52 0" stroke="#1e1e1e" stroke-width="2" fill="none"></path></g></g><g clip-path="url(#5Nr3iATMCdLbJ9G5kddbz)"><g stroke-linecap="round" transform="translate(1293.4337035579733 367.689620812371) rotate(0 13.041666984558105 17.5)"><path d="M6.52 0 C9.21 0.6, 13.58 0.89, 19.56 0 M6.52 0 C11.52 0.03, 16.5 -0.46, 19.56 0 M19.56 0 C23.58 -1.99, 25.74 3.8, 26.08 6.52 M19.56 0 C21.62 -1.52, 27.47 2.4, 26.08 6.52 M26.08 6.52 C27.7 13.4, 27.37 23.22, 26.08 28.48 M26.08 6.52 C26.39 12.71, 26.1 21.44, 26.08 28.48 M26.08 28.48 C24.45 33.59, 25.33 34.23, 19.56 35 M26.08 28.48 C24.65 34.3, 25.64 37.28, 19.56 35 M19.56 35 C16.38 34.69, 10.35 36.07, 6.52 35 M19.56 35 C16.98 35.22, 14.13 34.41, 6.52 35 M6.52 35 C1.12 34.66, 1.96 31.9, 0 28.48 M6.52 35 C0.01 35.17, -0.06 33.15, 0 28.48 M0 28.48 C-0.38 21.82, -1.29 15.06, 0 6.52 M0 28.48 C-0.3 20.85, -0.3 14.37, 0 6.52 M0 6.52 C0.34 1.47, 2.94 -1.85, 6.52 0 M0 6.52 C2.02 2.27, 2.05 1.36, 6.52 0" stroke="#1e1e1e" stroke-width="2" fill="none"></path></g></g><g clip-path="url(#5Nr3iATMCdLbJ9G5kddbz)"><g stroke-linecap="round" transform="translate(1254.0899130399753 430.4068352576238) rotate(0 13.041666984558105 17.5)"><path d="M6.52 0 C10.06 0.63, 15.13 0.11, 19.56 0 M6.52 0 C10.25 -0.09, 15.82 -0.63, 19.56 0 M19.56 0 C22.59 1.21, 26.28 3.18, 26.08 6.52 M19.56 0 C21.69 0.79, 28.19 1.23, 26.08 6.52 M26.08 6.52 C28.17 16.66, 26.42 21.34, 26.08 28.48 M26.08 6.52 C26.66 13.4, 25.89 18.22, 26.08 28.48 M26.08 28.48 C27.37 34.33, 25.89 35.19, 19.56 35 M26.08 28.48 C26.28 33.85, 25.42 34.34, 19.56 35 M19.56 35 C17.51 34.22, 14.21 35.44, 6.52 35 M19.56 35 C15.67 35.57, 11.69 34.32, 6.52 35 M6.52 35 C2.32 34.95, 0.28 32.23, 0 28.48 M6.52 35 C4.02 32.75, -0.23 31.98, 0 28.48 M0 28.48 C-0.72 23.56, -0.62 15.77, 0 6.52 M0 28.48 C-0.17 23.14, -0.74 17.92, 0 6.52 M0 6.52 C0.09 2.06, 3.35 1.25, 6.52 0 M0 6.52 C1.33 3.99, 0.14 0.6, 6.52 0" stroke="#1e1e1e" stroke-width="2" fill="none"></path></g></g><g clip-path="url(#5Nr3iATMCdLbJ9G5kddbz)"><g transform="translate(1618.3966468512072 310.6115821693466) rotate(0 47.36994934082031 12.5)"><text x="0" y="0" font-family="Virgil, Segoe UI Emoji" font-size="20px" fill="#1e1e1e" text-anchor="start" style="white-space: pre;" direction="ltr" dominant-baseline="text-before-edge">Opération</text></g></g><g clip-path="url(#5Nr3iATMCdLbJ9G5kddbz)"><g transform="translate(1536.8322190899557 190.60279892205136) rotate(0 16.379981994628906 25)"><text x="0" y="0" font-family="Virgil, Segoe UI Emoji" font-size="20px" fill="#1e1e1e" text-anchor="start" style="white-space: pre;" direction="ltr" dominant-baseline="text-before-edge">vue</text><text x="0" y="25" font-family="Virgil, Segoe UI Emoji" font-size="20px" fill="#1e1e1e" text-anchor="start" style="white-space: pre;" direction="ltr" dominant-baseline="text-before-edge"></text></g></g><g clip-path="url(#5Nr3iATMCdLbJ9G5kddbz)"><g stroke-linecap="round"><g transform="translate(588.814891651414 917.948656292727) rotate(0 67.17933533571431 -107.15596322154988)"><path d="M-0.18 -1.19 C22.06 -37.03, 111.77 -178.42, 134.06 -214 M-1.73 0.8 C20.27 -34.91, 110 -180.24, 132.96 -215.95" stroke="#1e1e1e" stroke-width="2" fill="none"></path></g><g transform="translate(588.814891651414 917.948656292727) rotate(0 67.17933533571431 -107.15596322154988)"><path d="M127.71 -191.51 C127.37 -200.65, 131.73 -210.12, 132.96 -215.95 M127.71 -191.51 C128.03 -198.64, 131.02 -204.66, 132.96 -215.95" stroke="#1e1e1e" stroke-width="2" fill="none"></path></g><g transform="translate(588.814891651414 917.948656292727) rotate(0 67.17933533571431 -107.15596322154988)"><path d="M113.22 -200.61 C118.1 -206.51, 127.59 -212.75, 132.96 -215.95 M113.22 -200.61 C117.57 -205.36, 124.53 -208.88, 132.96 -215.95" stroke="#1e1e1e" stroke-width="2" fill="none"></path></g></g><mask></mask></g><g clip-path="url(#5Nr3iATMCdLbJ9G5kddbz)"><g stroke-linecap="round"><g transform="translate(582.6276669955364 914.5221547725284) rotate(0 103.12857172978235 -21.450742919794777)"><path d="M1.08 -0.99 C35.14 -8.01, 171.4 -36.1, 205.44 -43.02 M0.19 1.11 C34.54 -5.65, 173.14 -33.92, 207.72 -41.55" stroke="#1e1e1e" stroke-width="2" fill="none"></path></g><g transform="translate(582.6276669955364 914.5221547725284) rotate(0 103.12857172978235 -21.450742919794777)"><path d="M186.5 -28.33 C193.24 -35.05, 202.97 -40.45, 207.72 -41.55 M186.5 -28.33 C192.72 -33.3, 201.57 -36.16, 207.72 -41.55" stroke="#1e1e1e" stroke-width="2" fill="none"></path></g><g transform="translate(582.6276669955364 914.5221547725284) rotate(0 103.12857172978235 -21.450742919794777)"><path d="M182.97 -45.07 C190.97 -45.28, 202.07 -44.14, 207.72 -41.55 M182.97 -45.07 C190.19 -44.52, 200.2 -41.85, 207.72 -41.55" stroke="#1e1e1e" stroke-width="2" fill="none"></path></g></g><mask></mask></g><g clip-path="url(#5Nr3iATMCdLbJ9G5kddbz)"><g transform="translate(1086.1632550531758 301.2952537138035) rotate(0 68.4399185180664 25)"><text x="0" y="0" font-family="Virgil, Segoe UI Emoji" font-size="20px" fill="#1e1e1e" text-anchor="start" style="white-space: pre;" direction="ltr" dominant-baseline="text-before-edge">mise en picking</text><text x="0" y="25" font-family="Virgil, Segoe UI Emoji" font-size="20px" fill="#1e1e1e" text-anchor="start" style="white-space: pre;" direction="ltr" dominant-baseline="text-before-edge"></text></g></g><g clip-path="url(#5Nr3iATMCdLbJ9G5kddbz)"><g transform="translate(771.9955616230194 358.7899949951393) rotate(0 59.73992919921875 25)"><text x="0" y="0" font-family="Virgil, Segoe UI Emoji" font-size="20px" fill="#1e1e1e" text-anchor="start" style="white-space: pre;" direction="ltr" dominant-baseline="text-before-edge">reserve </text><text x="0" y="25" font-family="Virgil, Segoe UI Emoji" font-size="20px" fill="#1e1e1e" text-anchor="start" style="white-space: pre;" direction="ltr" dominant-baseline="text-before-edge">vers chariot</text></g></g><g clip-path="url(#5Nr3iATMCdLbJ9G5kddbz)"><g transform="translate(660.1077878934018 518.5340314070787) rotate(0 38.14995574951172 12.5)"><text x="0" y="0" font-family="Virgil, Segoe UI Emoji" font-size="20px" fill="#1e1e1e" text-anchor="start" style="white-space: pre;" direction="ltr" dominant-baseline="text-before-edge">Reserve</text></g></g><g clip-path="url(#5Nr3iATMCdLbJ9G5kddbz)"><g transform="translate(631.8489050066553 836.4057706012301) rotate(0 40.88995361328125 25)"><text x="0" y="0" font-family="Virgil, Segoe UI Emoji" font-size="20px" fill="#1e1e1e" text-anchor="start" style="white-space: pre;" direction="ltr" dominant-baseline="text-before-edge">Mise en </text><text x="0" y="25" font-family="Virgil, Segoe UI Emoji" font-size="20px" fill="#1e1e1e" text-anchor="start" style="white-space: pre;" direction="ltr" dominant-baseline="text-before-edge">Reserve</text></g></g><g clip-path="url(#5Nr3iATMCdLbJ9G5kddbz)"><g stroke-linecap="round"><g transform="translate(194.77643903815357 958.3867220910637) rotate(0 237.81609081359636 -146.34836357759775)"><path d="M0.74 -0.28 C80.29 -49.16, 396.98 -243.86, 476.1 -292.58" stroke="#1e1e1e" stroke-width="2.5" fill="none" stroke-dasharray="8 10"></path></g><g transform="translate(194.77643903815357 958.3867220910637) rotate(0 237.81609081359636 -146.34836357759775)"><path d="M460.57 -272.98 C463.11 -276.23, 466.89 -281.21, 476.1 -292.58" stroke="#1e1e1e" stroke-width="2.5" fill="none"></path></g><g transform="translate(194.77643903815357 958.3867220910637) rotate(0 237.81609081359636 -146.34836357759775)"><path d="M451.61 -287.55 C456.04 -287.92, 461.61 -289.98, 476.1 -292.58" stroke="#1e1e1e" stroke-width="2.5" fill="none"></path></g></g><mask></mask></g><g clip-path="url(#5Nr3iATMCdLbJ9G5kddbz)"><g stroke-linecap="round"><g transform="translate(998.3991873509453 879.4688401016782) rotate(0 263.6708102889247 -45.67640512496746)"><path d="M-0.6 -0.94 C87.04 -16.15, 438.81 -76.79, 526.68 -92.01 M1.29 1.18 C89.25 -13.81, 441.07 -75.38, 529.05 -90.81" stroke="#1e1e1e" stroke-width="2" fill="none"></path></g><g transform="translate(998.3991873509453 879.4688401016782) rotate(0 263.6708102889247 -45.67640512496746)"><path d="M507.39 -78.34 C513.93 -83.95, 522.45 -88.65, 529.05 -90.81 M507.39 -78.34 C511.5 -80.46, 517.5 -84.49, 529.05 -90.81" stroke="#1e1e1e" stroke-width="2" fill="none"></path></g><g transform="translate(998.3991873509453 879.4688401016782) rotate(0 263.6708102889247 -45.67640512496746)"><path d="M504.44 -95.18 C511.97 -94.53, 521.58 -92.99, 529.05 -90.81 M504.44 -95.18 C509.15 -93.53, 515.82 -93.77, 529.05 -90.81" stroke="#1e1e1e" stroke-width="2" fill="none"></path></g></g><mask></mask></g><g clip-path="url(#5Nr3iATMCdLbJ9G5kddbz)"><g stroke-linecap="round"><g transform="translate(821.5890401070012 559.3041351968009) rotate(0 170.0799025640622 -68.47767729418105)"><path d="M-0.05 0.9 C56.51 -21.62, 283.34 -113.03, 340.22 -136.16" stroke="#1e1e1e" stroke-width="2.5" fill="none" stroke-dasharray="8 10"></path></g><g transform="translate(821.5890401070012 559.3041351968009) rotate(0 170.0799025640622 -68.47767729418105)"><path d="M321.65 -119.43 C330.27 -125.59, 337.05 -130.11, 340.22 -136.16" stroke="#1e1e1e" stroke-width="2.5" fill="none"></path></g><g transform="translate(821.5890401070012 559.3041351968009) rotate(0 170.0799025640622 -68.47767729418105)"><path d="M315.24 -135.28 C326.12 -135.49, 335.32 -134.07, 340.22 -136.16" stroke="#1e1e1e" stroke-width="2.5" fill="none"></path></g></g><mask></mask></g><g clip-path="url(#5Nr3iATMCdLbJ9G5kddbz)"><g transform="translate(962.9602380217419 206.83960732303774) rotate(0 42.789947509765625 25)"><text x="0" y="0" font-family="Virgil, Segoe UI Emoji" font-size="20px" fill="#1e1e1e" text-anchor="start" style="white-space: pre;" direction="ltr" dominant-baseline="text-before-edge">chariot </text><text x="0" y="25" font-family="Virgil, Segoe UI Emoji" font-size="20px" fill="#1e1e1e" text-anchor="start" style="white-space: pre;" direction="ltr" dominant-baseline="text-before-edge">reassort</text></g></g><g clip-path="url(#5Nr3iATMCdLbJ9G5kddbz)"><g stroke-linecap="round" transform="translate(680.3857370043227 553.7900572462571) rotate(0 100.82152755757656 99.84190870301143)"><path d="M126.25 25 C146.03 40.81, 158.84 52.71, 176.39 75 M126.25 25 C140.18 40.58, 150.81 51.13, 176.39 75 M176.39 75 C203.2 102.58, 201.77 99.72, 176.39 125 M176.39 75 C199.48 101.4, 200.27 101.22, 176.39 125 M176.39 125 C160.94 135.81, 148.45 151.07, 126.25 174.68 M176.39 125 C162.96 138.25, 150.86 152.33, 126.25 174.68 M126.25 174.68 C99.52 201.89, 97.63 199.81, 75.75 174.68 M126.25 174.68 C102.85 197.13, 104.26 195.11, 75.75 174.68 M75.75 174.68 C58.24 154, 33.87 135.25, 25.25 125 M75.75 174.68 C60.36 158.42, 43.24 143.29, 25.25 125 M25.25 125 C-3.39 99.28, -3.14 100.23, 25.25 75 M25.25 125 C0.33 99.72, 3.18 99.05, 25.25 75 M25.25 75 C39.96 57.87, 56.06 44.1, 75.75 25 M25.25 75 C39.18 65.14, 50.92 51.15, 75.75 25 M75.75 25 C98.84 -3.52, 97.95 -1.97, 126.25 25 M75.75 25 C97.04 -1.92, 100.26 -3.71, 126.25 25" stroke="#1e1e1e" stroke-width="2" fill="none"></path></g></g><g clip-path="url(#5Nr3iATMCdLbJ9G5kddbz)"><g stroke-linecap="round"><g transform="translate(819.2233848184025 545.6479041594804) rotate(0 57.49474128133579 -101.6424890509328)"><path d="M-0.64 1.09 C18.7 -32.95, 95.67 -169.29, 115.03 -203.22 M1.22 0.62 C20.49 -32.7, 95.13 -167.48, 114.1 -201.64" stroke="#1e1e1e" stroke-width="2" fill="none"></path></g><g transform="translate(819.2233848184025 545.6479041594804) rotate(0 57.49474128133579 -101.6424890509328)"><path d="M110.18 -176.95 C112.63 -182.19, 111.77 -186.69, 114.1 -201.64 M110.18 -176.95 C111.59 -186.76, 113.68 -194.55, 114.1 -201.64" stroke="#1e1e1e" stroke-width="2" fill="none"></path></g><g transform="translate(819.2233848184025 545.6479041594804) rotate(0 57.49474128133579 -101.6424890509328)"><path d="M95.23 -185.25 C100.97 -188.61, 103.34 -191.33, 114.1 -201.64 M95.23 -185.25 C102.17 -192.1, 109.77 -196.82, 114.1 -201.64" stroke="#1e1e1e" stroke-width="2" fill="none"></path></g></g><mask></mask></g><g clip-path="url(#5Nr3iATMCdLbJ9G5kddbz)"><g stroke-linecap="round" transform="translate(940.3730182326457 272.5478830731357) rotate(0 44.147747769597004 35.93421330083481)"><path d="M17.97 0 C33.45 -1.54, 47.96 -0.71, 70.33 0 M17.97 0 C37.52 -0.17, 55.64 -0.05, 70.33 0 M70.33 0 C81.84 0.95, 87.27 5.37, 88.3 17.97 M70.33 0 C83.12 0.63, 86.9 8.25, 88.3 17.97 M88.3 17.97 C86.51 24.51, 89.72 32.91, 88.3 53.9 M88.3 17.97 C88.47 28.16, 87.44 38.24, 88.3 53.9 M88.3 53.9 C86.37 66.15, 80.97 70.48, 70.33 71.87 M88.3 53.9 C88.42 63.61, 84.03 72.52, 70.33 71.87 M70.33 71.87 C57.05 73.09, 39.3 69.68, 17.97 71.87 M70.33 71.87 C59.81 71.24, 47.99 72.48, 17.97 71.87 M17.97 71.87 C4.73 70.87, 0.06 65.97, 0 53.9 M17.97 71.87 C7.8 72.27, -1.32 68.1, 0 53.9 M0 53.9 C1.47 39.62, 1.67 27, 0 17.97 M0 53.9 C-0.12 40.52, 0.28 25.26, 0 17.97 M0 17.97 C-1.58 5.09, 5.57 1.11, 17.97 0 M0 17.97 C0.95 7.52, 5.62 -0.48, 17.97 0" stroke="#1e1e1e" stroke-width="2" fill="none"></path></g></g><g clip-path="url(#5Nr3iATMCdLbJ9G5kddbz)"><g stroke-linecap="round"><g transform="translate(1038.9354318577925 323.38574061227513) rotate(0 75.04324815177677 27.651366584420533)"><path d="M-0.63 -0.64 C24.37 8.82, 124.43 46.29, 149.56 55.76 M1.23 1.63 C26.08 10.81, 123.63 45.1, 148.33 53.88" stroke="#1e1e1e" stroke-width="2" fill="none"></path></g><g transform="translate(1038.9354318577925 323.38574061227513) rotate(0 75.04324815177677 27.651366584420533)"><path d="M123.34 54.11 C128.76 53.3, 137.09 54.25, 148.33 53.88 M123.34 54.11 C132.55 54.81, 142.43 54.85, 148.33 53.88" stroke="#1e1e1e" stroke-width="2" fill="none"></path></g><g transform="translate(1038.9354318577925 323.38574061227513) rotate(0 75.04324815177677 27.651366584420533)"><path d="M129.03 37.98 C132.85 41.34, 139.69 46.48, 148.33 53.88 M129.03 37.98 C136.04 44.68, 143.79 50.75, 148.33 53.88" stroke="#1e1e1e" stroke-width="2" fill="none"></path></g></g><mask></mask></g><g clip-path="url(#5Nr3iATMCdLbJ9G5kddbz)"><g stroke-linecap="round" transform="translate(1176.832219089955 313.4599417791942) rotate(0 95.71428571428578 95.7142857142857)"><path d="M120 24 C135.12 41.48, 153.7 58.13, 167.43 72 M120 24 C131.13 35.9, 142.25 46.86, 167.43 72 M167.43 72 C190.74 95.89, 193.33 94.39, 167.43 120 M167.43 72 C189.58 95.73, 190.38 96.17, 167.43 120 M167.43 120 C151.68 137.2, 137.2 151.17, 120 167.43 M167.43 120 C148.08 139.15, 130.91 157.74, 120 167.43 M120 167.43 C97.58 190.95, 94.87 192.92, 72 167.43 M120 167.43 C93.79 192.21, 94.35 190.13, 72 167.43 M72 167.43 C59.06 152.49, 40.84 137.75, 24 120 M72 167.43 C53.01 150.02, 34.87 131.38, 24 120 M24 120 C1.76 97.11, 0.51 96.2, 24 72 M24 120 C0.33 96.75, -2.07 96.27, 24 72 M24 72 C39.24 56.7, 51.03 44.01, 72 24 M24 72 C37.67 58.44, 53.28 43.75, 72 24 M72 24 C94.24 -0.41, 95.15 -1.52, 120 24 M72 24 C97 0.14, 97.08 -1.66, 120 24" stroke="#1e1e1e" stroke-width="2" fill="none"></path></g></g><g clip-path="url(#5Nr3iATMCdLbJ9G5kddbz)"><g stroke-linecap="round" transform="translate(1472.546504804241 129.17422749347992) rotate(0 19.285714285714334 17.85714285714286)"><path d="M8.93 0 C13.29 0.28, 19.4 1.06, 29.64 0 M8.93 0 C14.28 0.91, 19.65 1.01, 29.64 0 M29.64 0 C33.77 0.28, 37.78 2.73, 38.57 8.93 M29.64 0 C36.66 -0.89, 40.6 0.81, 38.57 8.93 M38.57 8.93 C39.44 12.55, 38.38 18.19, 38.57 26.79 M38.57 8.93 C38.96 16.26, 38.21 22.57, 38.57 26.79 M38.57 26.79 C36.97 34.7, 35.51 35.38, 29.64 35.71 M38.57 26.79 C38.45 35.04, 36.09 37.45, 29.64 35.71 M29.64 35.71 C27.03 36.9, 20.65 36.11, 8.93 35.71 M29.64 35.71 C22.85 35.57, 17.26 35.52, 8.93 35.71 M8.93 35.71 C1.8 36.62, -1.71 32.62, 0 26.79 M8.93 35.71 C5.05 37.9, 1.65 31.98, 0 26.79 M0 26.79 C1.47 19.41, 1.64 14.16, 0 8.93 M0 26.79 C0.56 23.35, 0.18 18.36, 0 8.93 M0 8.93 C-1.66 3.48, 3.23 1.3, 8.93 0 M0 8.93 C-1.12 4.04, 4.16 0.28, 8.93 0" stroke="#1e1e1e" stroke-width="2" fill="none"></path></g></g><g clip-path="url(#5Nr3iATMCdLbJ9G5kddbz)"><g transform="translate(1525.4036476613842 133.4599417791942) rotate(0 96.05989837646484 25)"><text x="0" y="0" font-family="Virgil, Segoe UI Emoji" font-size="20px" fill="#1e1e1e" text-anchor="start" style="white-space: pre;" direction="ltr" dominant-baseline="text-before-edge">emplacement interne</text><text x="0" y="25" font-family="Virgil, Segoe UI Emoji" font-size="20px" fill="#1e1e1e" text-anchor="start" style="white-space: pre;" direction="ltr" dominant-baseline="text-before-edge"></text></g></g><g clip-path="url(#5Nr3iATMCdLbJ9G5kddbz)"><g stroke-linecap="round" transform="translate(1483.0891333563923 182.03137035062278) rotate(0 18.571428571428555 22.857142857142847)"><path d="M23.75 5.75 C26.65 10.65, 28.36 12.93, 32.39 17.25 M23.75 5.75 C26.96 9.94, 30.97 14.3, 32.39 17.25 M32.39 17.25 C37.54 22.4, 37.73 22.95, 32.39 28.75 M32.39 17.25 C36.56 22.58, 35.48 22.04, 32.39 28.75 M32.39 28.75 C29.76 32.65, 25.11 35.98, 23.75 39.96 M32.39 28.75 C30.15 32.32, 26.32 36.29, 23.75 39.96 M23.75 39.96 C20.29 44.77, 18.29 47, 14.25 39.96 M23.75 39.96 C18.78 46.98, 19.03 47.09, 14.25 39.96 M14.25 39.96 C11.43 36.82, 8.13 32.68, 4.75 28.75 M14.25 39.96 C11.22 36.52, 9.17 34.36, 4.75 28.75 M4.75 28.75 C-1.81 21.89, 0.26 23.9, 4.75 17.25 M4.75 28.75 C-0.78 20.94, -1.17 22.73, 4.75 17.25 M4.75 17.25 C6.62 12.59, 10.46 10.46, 14.25 5.75 M4.75 17.25 C7.3 14.69, 9.47 13.19, 14.25 5.75 M14.25 5.75 C17.06 -0.09, 20.61 -1.34, 23.75 5.75 M14.25 5.75 C17.67 -1.07, 19.58 -1.48, 23.75 5.75" stroke="#1e1e1e" stroke-width="2" fill="none"></path></g></g><g clip-path="url(#5Nr3iATMCdLbJ9G5kddbz)"><g stroke-linecap="round" transform="translate(1522.5465048042413 244.88851320776564) rotate(0 17.85714285714289 17.85714285714286)"><path d="M14.28 0.31 C17.8 -0.53, 23.09 0.91, 26.46 2.73 C29.84 4.54, 33.18 7.68, 34.52 11.2 C35.87 14.72, 35.77 20.19, 34.53 23.85 C33.3 27.5, 30.43 31.17, 27.12 33.14 C23.8 35.1, 18.46 36.23, 14.65 35.65 C10.83 35.06, 6.62 32.65, 4.22 29.63 C1.83 26.62, 0.32 21.44, 0.27 17.56 C0.22 13.68, 1.49 9.31, 3.91 6.34 C6.33 3.36, 12.77 0.79, 14.79 -0.27 C16.81 -1.33, 15.9 -0.45, 16.03 -0.03 M19.83 -0.39 C23.44 -0.38, 27.26 2.03, 29.82 4.82 C32.38 7.6, 34.72 12.45, 35.21 16.33 C35.71 20.21, 34.95 24.9, 32.79 28.1 C30.62 31.3, 25.9 34.56, 22.21 35.53 C18.53 36.5, 14.09 35.59, 10.67 33.93 C7.26 32.26, 3.34 28.92, 1.72 25.54 C0.11 22.16, -0.12 17.36, 0.97 13.63 C2.06 9.91, 5.13 5.46, 8.25 3.17 C11.37 0.89, 17.78 0.45, 19.71 -0.07 C21.63 -0.59, 19.87 -0.34, 19.82 0.05" stroke="#1e1e1e" stroke-width="2" fill="none"></path></g></g><g clip-path="url(#5Nr3iATMCdLbJ9G5kddbz)"><g transform="translate(1569.6893619470984 247.74565606490847) rotate(0 94.7898941040039 12.5)"><text x="0" y="0" font-family="Virgil, Segoe UI Emoji" font-size="20px" fill="#1e1e1e" text-anchor="start" style="white-space: pre;" direction="ltr" dominant-baseline="text-before-edge">emplacement virtuel</text></g></g><g clip-path="url(#5Nr3iATMCdLbJ9G5kddbz)"><g stroke-linecap="round"><g transform="translate(1563.5508386327645 323.2683071428334) rotate(0 24.891559114523943 0.8812984629094558)"><path d="M0 0 C8.3 0.29, 41.49 1.47, 49.78 1.76 M0 0 C8.3 0.29, 41.49 1.47, 49.78 1.76" stroke="#1e1e1e" stroke-width="2" fill="none"></path></g><g transform="translate(1563.5508386327645 323.2683071428334) rotate(0 24.891559114523943 0.8812984629094558)"><path d="M26.09 9.45 C33.51 7.04, 40.93 4.63, 49.78 1.76 M26.09 9.45 C32.28 7.44, 38.48 5.43, 49.78 1.76" stroke="#1e1e1e" stroke-width="2" fill="none"></path></g><g transform="translate(1563.5508386327645 323.2683071428334) rotate(0 24.891559114523943 0.8812984629094558)"><path d="M26.69 -7.58 C33.93 -4.65, 41.16 -1.73, 49.78 1.76 M26.69 -7.58 C32.73 -5.14, 38.76 -2.7, 49.78 1.76" stroke="#1e1e1e" stroke-width="2" fill="none"></path></g></g><mask></mask></g><g clip-path="url(#5Nr3iATMCdLbJ9G5kddbz)"><g transform="translate(491.11793337567013 864.8885132077654) rotate(0 45.719947814941406 25)"><text x="0" y="0" font-family="Virgil, Segoe UI Emoji" font-size="20px" fill="#1e1e1e" text-anchor="start" style="white-space: pre;" direction="ltr" dominant-baseline="text-before-edge">Chariot</text><text x="0" y="25" font-family="Virgil, Segoe UI Emoji" font-size="20px" fill="#1e1e1e" text-anchor="start" style="white-space: pre;" direction="ltr" dominant-baseline="text-before-edge">Reception</text></g></g><g clip-path="url(#5Nr3iATMCdLbJ9G5kddbz)"><g stroke-linecap="round"><g transform="translate(1571.0139349890244 367.36448456614977) rotate(0 28.847513974430285 0.7035979018153853)"><path d="M0.78 0.3 C10.04 0.62, 47.08 0.93, 56.63 1.25" stroke="#1e1e1e" stroke-width="2.5" fill="none" stroke-dasharray="8 10"></path></g><g transform="translate(1571.0139349890244 367.36448456614977) rotate(0 28.847513974430285 0.7035979018153853)"><path d="M32.98 9.34 C42.76 4.26, 51.23 3.57, 56.63 1.25" stroke="#1e1e1e" stroke-width="2.5" fill="none"></path></g><g transform="translate(1571.0139349890244 367.36448456614977) rotate(0 28.847513974430285 0.7035979018153853)"><path d="M33.31 -7.76 C42.87 -6.16, 51.21 -0.18, 56.63 1.25" stroke="#1e1e1e" stroke-width="2.5" fill="none"></path></g></g><mask></mask></g><g clip-path="url(#5Nr3iATMCdLbJ9G5kddbz)"><g transform="translate(1652.631291599608 354.69972233347306) rotate(0 29.119964599609375 12.5)"><text x="0" y="0" font-family="Virgil, Segoe UI Emoji" font-size="20px" fill="#1e1e1e" text-anchor="start" style="white-space: pre;" direction="ltr" dominant-baseline="text-before-edge">Route</text></g></g><g clip-path="url(#5Nr3iATMCdLbJ9G5kddbz)"><g stroke-linecap="round" transform="translate(508.26079051852724 929.17422749348) rotate(0 37.14285714285717 39.28571428571428)"><path d="M18.57 0 C30.82 0.71, 45.34 0.07, 55.71 0 M18.57 0 C32.13 -0.53, 45.85 0.43, 55.71 0 M55.71 0 C69.17 -1.09, 76.01 7.36, 74.29 18.57 M55.71 0 C69.12 1.58, 72.64 6.99, 74.29 18.57 M74.29 18.57 C74.82 33.67, 75.97 45.65, 74.29 60 M74.29 18.57 C74.34 33.12, 75.22 49.48, 74.29 60 M74.29 60 C75.9 73.16, 68.19 80.17, 55.71 78.57 M74.29 60 C72.62 72.08, 66.68 80.17, 55.71 78.57 M55.71 78.57 C47.06 76.61, 34.01 76.53, 18.57 78.57 M55.71 78.57 C46.53 78.94, 36.51 79.27, 18.57 78.57 M18.57 78.57 C4.57 76.92, 1.55 72.56, 0 60 M18.57 78.57 C7.74 77.59, -0.42 73.64, 0 60 M0 60 C-0.57 47.69, 0.19 33.38, 0 18.57 M0 60 C0.49 48.74, -1.32 39.2, 0 18.57 M0 18.57 C-0.77 7.18, 4.3 0.69, 18.57 0 M0 18.57 C0.99 7.68, 8.23 1.21, 18.57 0" stroke="#1e1e1e" stroke-width="2" fill="none"></path></g></g><g clip-path="url(#5Nr3iATMCdLbJ9G5kddbz)"><g transform="translate(55.547595729691295 738.2194222623214) rotate(0 227.44970703125 25)"><text x="0" y="0" font-family="Virgil, Segoe UI Emoji" font-size="20px" fill="#1e1e1e" text-anchor="start" style="white-space: pre;" direction="ltr" dominant-baseline="text-before-edge">Route Achat en 2 etapes = MER o Reception</text><text x="0" y="25" font-family="Virgil, Segoe UI Emoji" font-size="20px" fill="#1e1e1e" text-anchor="start" style="white-space: pre;" direction="ltr" dominant-baseline="text-before-edge">Regle de reassort</text></g></g><g clip-path="url(#5Nr3iATMCdLbJ9G5kddbz)"><g transform="translate(1111.9245040736967 795.1878541981629) rotate(0 70.36991882324219 12.5)"><text x="0" y="0" font-family="Virgil, Segoe UI Emoji" font-size="20px" fill="#1e1e1e" text-anchor="start" style="white-space: pre;" direction="ltr" dominant-baseline="text-before-edge">Livraison Gros</text></g></g><g transform="translate(81.91119378533335 1374.4933132463389) rotate(0 943.0562744140625 112.5)"><text x="0" y="0" font-family="Virgil, Segoe UI Emoji" font-size="36px" fill="#1e1e1e" text-anchor="start" style="white-space: pre;" direction="ltr" dominant-baseline="text-before-edge"> + Manual Purchase: Vendors -&gt; ChariotReception -&gt; Reserve</text><text x="0" y="45" font-family="Virgil, Segoe UI Emoji" font-size="36px" fill="#1e1e1e" text-anchor="start" style="white-space: pre;" direction="ltr" dominant-baseline="text-before-edge"> + Reassort Etagere rule: if ( PetitProduit &amp;&amp; Etagere(quantity) &lt; x ) Reserve -&gt; Chariot2 -&gt; Etagere</text><text x="0" y="90" font-family="Virgil, Segoe UI Emoji" font-size="36px" fill="#1e1e1e" text-anchor="start" style="white-space: pre;" direction="ltr" dominant-baseline="text-before-edge"> + Reassort Stock rule: if ( Stock(quantity) &lt; 0 ) Vendors -&gt; ChariotReception -&gt; Reserve</text><text x="0" y="135" font-family="Virgil, Segoe UI Emoji" font-size="36px" fill="#1e1e1e" text-anchor="start" style="white-space: pre;" direction="ltr" dominant-baseline="text-before-edge"> + Sales(x): (Etagere(quantity) &lt; x ? Reserve : Etagere ) -&gt; Customer</text><text x="0" y="180" font-family="Virgil, Segoe UI Emoji" font-size="36px" fill="#1e1e1e" text-anchor="start" style="white-space: pre;" direction="ltr" dominant-baseline="text-before-edge"></text></g><g clip-path="url(#5Nr3iATMCdLbJ9G5kddbz)"><g stroke-linecap="round" transform="translate(792.0168832011452 788.2793317066927) rotate(0 100.82152755757653 99.84190870301143)"><path d="M126.25 25 C139.88 36.49, 150.78 47.61, 176.39 75 M126.25 25 C145.64 42.95, 165.7 61.02, 176.39 75 M176.39 75 C203.17 100.27, 201.53 100.62, 176.39 125 M176.39 75 C199.64 104.5, 198.89 102.05, 176.39 125 M176.39 125 C161.43 137.73, 143.17 154.8, 126.25 174.68 M176.39 125 C164.16 137.36, 153.9 150.32, 126.25 174.68 M126.25 174.68 C99.73 199.24, 100.05 199.45, 75.75 174.68 M126.25 174.68 C99.68 201.27, 104.14 197.23, 75.75 174.68 M75.75 174.68 C66.91 160.27, 54.14 154.83, 25.25 125 M75.75 174.68 C65.86 165.48, 53.15 152.25, 25.25 125 M25.25 125 C3.22 100.11, -0.52 96.74, 25.25 75 M25.25 125 C1.62 95.82, 2.97 98.74, 25.25 75 M25.25 75 C41.9 60.77, 61.66 42.9, 75.75 25 M25.25 75 C34.34 62.36, 45.03 53.17, 75.75 25 M75.75 25 C101.59 2.26, 97.19 -3.57, 126.25 25 M75.75 25 C98.08 -3.25, 101.42 3.97, 126.25 25" stroke="#1e1e1e" stroke-width="2" fill="none"></path></g></g><g clip-path="url(#5Nr3iATMCdLbJ9G5kddbz)"><g transform="translate(835.6053072876603 756.8171257769949) rotate(0 106.9698715209961 12.5)"><text x="0" y="0" font-family="Virgil, Segoe UI Emoji" font-size="20px" fill="#1e1e1e" text-anchor="start" style="white-space: pre;" direction="ltr" dominant-baseline="text-before-edge">Reserve Gros Produit</text></g></g><g clip-path="url(#5Nr3iATMCdLbJ9G5kddbz)"><g stroke-linecap="round" transform="translate(835.2452007868976 845.8703831945563) rotate(0 13.041666984558105 17.5)"><path d="M6.52 0 C10.26 -0.98, 17.21 1.26, 19.56 0 M6.52 0 C10.8 -0.19, 15.91 0.21, 19.56 0 M19.56 0 C22.68 1.21, 25.8 1.4, 26.08 6.52 M19.56 0 C23.75 -2.12, 23.83 3.06, 26.08 6.52 M26.08 6.52 C26.31 14.59, 25.08 22.46, 26.08 28.48 M26.08 6.52 C25.55 13.14, 25.39 19.63, 26.08 28.48 M26.08 28.48 C25.42 31.46, 23.34 34.64, 19.56 35 M26.08 28.48 C23.85 33.48, 24.35 36.84, 19.56 35 M19.56 35 C16.2 34.33, 10.62 33.93, 6.52 35 M19.56 35 C14.15 35.38, 9.18 35.11, 6.52 35 M6.52 35 C3.89 34.38, 1.2 32.46, 0 28.48 M6.52 35 C4.37 32.73, -0.4 33.84, 0 28.48 M0 28.48 C-0.14 18.9, -0.17 9.72, 0 6.52 M0 28.48 C0.85 24.57, -0.18 19.94, 0 6.52 M0 6.52 C1.14 3.35, 2.63 0.25, 6.52 0 M0 6.52 C0.56 2.72, -0.12 1.14, 6.52 0" stroke="#1e1e1e" stroke-width="2" fill="none"></path></g></g><g clip-path="url(#5Nr3iATMCdLbJ9G5kddbz)"><g stroke-linecap="round" transform="translate(884.7469152171932 842.5702688992033) rotate(0 13.041666984558105 17.5)"><path d="M6.52 0 C11.81 0.18, 15.59 -0.38, 19.56 0 M6.52 0 C11.61 -0.01, 15.67 0.03, 19.56 0 M19.56 0 C22.06 -1.96, 26.85 3.02, 26.08 6.52 M19.56 0 C25.5 1.7, 26.17 2.81, 26.08 6.52 M26.08 6.52 C26.62 13.21, 25.03 17.65, 26.08 28.48 M26.08 6.52 C25.48 11.2, 25.99 15.49, 26.08 28.48 M26.08 28.48 C26.65 33.21, 25.51 35.28, 19.56 35 M26.08 28.48 C26.75 34.19, 25.2 33.69, 19.56 35 M19.56 35 C16.56 34.76, 12.29 35.93, 6.52 35 M19.56 35 C16.44 35.5, 13.61 35.73, 6.52 35 M6.52 35 C0.2 34.65, 0.88 34.74, 0 28.48 M6.52 35 C2.41 33.45, -0.13 31.8, 0 28.48 M0 28.48 C-0.39 21.82, 1.74 17.19, 0 6.52 M0 28.48 C0.4 22.64, -0.06 16.59, 0 6.52 M0 6.52 C0.47 0.18, 3.16 -1.58, 6.52 0 M0 6.52 C0.78 2.77, 0.28 -0.76, 6.52 0" stroke="#1e1e1e" stroke-width="2" fill="none"></path></g></g><g clip-path="url(#5Nr3iATMCdLbJ9G5kddbz)"><g stroke-linecap="round" transform="translate(888.0470295125463 897.0221547725283) rotate(0 13.041666984558105 17.5)"><path d="M6.52 0 C9.31 0.74, 13.51 -0.55, 19.56 0 M6.52 0 C10.59 0.4, 14.62 0.61, 19.56 0 M19.56 0 C23.98 0.56, 24.92 3.09, 26.08 6.52 M19.56 0 C23.68 0.51, 27.67 0.85, 26.08 6.52 M26.08 6.52 C25.26 12.28, 25.35 20.43, 26.08 28.48 M26.08 6.52 C26.95 11.12, 26.43 16.03, 26.08 28.48 M26.08 28.48 C27.2 31.68, 22.76 33.24, 19.56 35 M26.08 28.48 C27.9 33.1, 23.3 33.34, 19.56 35 M19.56 35 C15.94 34.62, 10.87 34.79, 6.52 35 M19.56 35 C14.69 35.6, 9.32 34.54, 6.52 35 M6.52 35 C2.06 34.11, -0.15 31.45, 0 28.48 M6.52 35 C0.19 34.38, -0.27 34.65, 0 28.48 M0 28.48 C1.19 21.36, 0.51 12.13, 0 6.52 M0 28.48 C0.44 20.57, 0.29 14.5, 0 6.52 M0 6.52 C-1.65 1.51, 1.12 -1.07, 6.52 0 M0 6.52 C1.96 1.27, 0.27 0.88, 6.52 0" stroke="#1e1e1e" stroke-width="2" fill="none"></path></g></g><g clip-path="url(#5Nr3iATMCdLbJ9G5kddbz)"><g stroke-linecap="round" transform="translate(836.8952579345741 890.4219261818222) rotate(0 13.041666984558105 17.5)"><path d="M6.52 0 C9.04 -1.27, 14.47 0.56, 19.56 0 M6.52 0 C11.52 -0.38, 16.45 -0.07, 19.56 0 M19.56 0 C24.35 1.38, 24.93 2.67, 26.08 6.52 M19.56 0 C22.21 0.87, 25.32 0.6, 26.08 6.52 M26.08 6.52 C26.61 12.87, 27.65 18.73, 26.08 28.48 M26.08 6.52 C25.64 13.17, 25.33 21.75, 26.08 28.48 M26.08 28.48 C26.32 32.3, 22.46 36.26, 19.56 35 M26.08 28.48 C24.33 33.32, 25.88 34.29, 19.56 35 M19.56 35 C13.58 34.9, 10.74 36.37, 6.52 35 M19.56 35 C15.22 34.94, 11.02 34.43, 6.52 35 M6.52 35 C1.63 34.77, 1.59 34.39, 0 28.48 M6.52 35 C1.62 36.94, 1.31 34.18, 0 28.48 M0 28.48 C0.44 19.4, 0.96 12.72, 0 6.52 M0 28.48 C-0.39 20.62, -0.59 14.67, 0 6.52 M0 6.52 C-0.78 0.51, 2.94 1.29, 6.52 0 M0 6.52 C-0.42 4.26, 2.35 -1.98, 6.52 0" stroke="#1e1e1e" stroke-width="2" fill="none"></path></g></g><g clip-path="url(#5Nr3iATMCdLbJ9G5kddbz)"><g stroke-linecap="round" transform="translate(932.5985724998122 867.3211261143509) rotate(0 13.041666984558105 17.5)"><path d="M6.52 0 C9.56 0.59, 13.94 0.07, 19.56 0 M6.52 0 C10.87 -0.41, 15.71 -0.19, 19.56 0 M19.56 0 C23.78 -1.37, 25.33 4.13, 26.08 6.52 M19.56 0 C24.76 -0.76, 24.6 2.68, 26.08 6.52 M26.08 6.52 C27.38 14.68, 25.85 18.65, 26.08 28.48 M26.08 6.52 C27.04 12.51, 25.72 17.43, 26.08 28.48 M26.08 28.48 C24.44 31.93, 23.15 36.01, 19.56 35 M26.08 28.48 C26.12 30.62, 23.4 36.37, 19.56 35 M19.56 35 C15.12 34, 9.04 34.01, 6.52 35 M19.56 35 C16.63 35.45, 14.52 34.85, 6.52 35 M6.52 35 C0.22 34.59, 1.7 30.9, 0 28.48 M6.52 35 C4.41 34.78, 0.95 34.23, 0 28.48 M0 28.48 C1.14 22.5, -0.93 18.73, 0 6.52 M0 28.48 C0.15 23.34, -0.35 16.32, 0 6.52 M0 6.52 C0.58 0.23, 0.33 -0.81, 6.52 0 M0 6.52 C-0.59 2.29, 0.44 1.22, 6.52 0" stroke="#1e1e1e" stroke-width="2" fill="none"></path></g></g><g clip-path="url(#5Nr3iATMCdLbJ9G5kddbz)"><g stroke-linecap="round" transform="translate(584.2777241432129 403.6644618518785) rotate(0 305.2605723201557 305.26057232015575)"><path d="M382.5 76.5 C431.83 128.12, 483.97 180.26, 534.02 229.5 M382.5 76.5 C421.61 114.25, 459.24 153.1, 534.02 229.5 M534.02 229.5 C612.18 305.02, 609.75 307.97, 534.02 382.5 M534.02 229.5 C610.81 305.04, 611.39 307.65, 534.02 382.5 M534.02 382.5 C505.4 415.28, 474.77 444.48, 382.5 534.02 M534.02 382.5 C476.63 440.89, 420.21 495.9, 382.5 534.02 M382.5 534.02 C306.09 611.73, 307.17 611.51, 229.5 534.02 M382.5 534.02 C306.87 610.57, 307.98 608.35, 229.5 534.02 M229.5 534.02 C174.62 480.81, 121.45 426.44, 76.5 382.5 M229.5 534.02 C169.85 474.91, 110.88 417.3, 76.5 382.5 M76.5 382.5 C0.1 305.36, 1.5 304.9, 76.5 229.5 M76.5 382.5 C1.53 306.52, 1.86 307.59, 76.5 229.5 M76.5 229.5 C132.96 173.12, 192.5 115.18, 229.5 76.5 M76.5 229.5 C127.93 178.51, 179.53 126.06, 229.5 76.5 M229.5 76.5 C307.78 -1.91, 307.02 -0.87, 382.5 76.5 M229.5 76.5 C307.05 0.25, 307.1 -1.12, 382.5 76.5" stroke="#1e1e1e" stroke-width="2" fill="none"></path></g></g><g clip-path="url(#5Nr3iATMCdLbJ9G5kddbz)"><g transform="translate(719.5824102526874 225.78830133235) rotate(0 27.15997314453122 12.5)"><text x="0" y="0" font-family="Virgil, Segoe UI Emoji" font-size="20px" fill="#1e1e1e" text-anchor="start" style="white-space: pre;" direction="ltr" dominant-baseline="text-before-edge">Stock</text></g></g><g clip-path="url(#5Nr3iATMCdLbJ9G5kddbz)"><g stroke-linecap="round" transform="translate(419.2720093755609 47.582129383286116) rotate(0 599.7957731804142 555.244230193148)"><path d="M750 139 C845.83 228.01, 943.84 318.64, 1049.59 417 M750 139 C818.86 203.84, 889.33 267.83, 1049.59 417 M1049.59 417 C1201.14 556.04, 1201.35 556.46, 1049.59 695 M1049.59 417 C1201 555.38, 1200.23 554.96, 1049.59 695 M1049.59 695 C974.81 764.34, 900.79 833.54, 750 971.49 M1049.59 695 C980.4 758.94, 910.23 823.56, 750 971.49 M750 971.49 C599.93 1110.31, 600.36 1111.99, 450 971.49 M750 971.49 C601.3 1111.27, 600.93 1109.6, 450 971.49 M450 971.49 C337.53 865.05, 222.88 760.99, 150 695 M450 971.49 C358.88 887.57, 266.73 802.49, 150 695 M150 695 C-1.17 555.59, -1.53 556.57, 150 417 M150 695 C-1.41 555.25, 0.68 554, 150 417 M150 417 C229.45 343.71, 308.33 270.57, 450 139 M150 417 C217.38 353.57, 285.48 290.76, 450 139 M450 139 C600.89 1.83, 601.56 -1.12, 750 139 M450 139 C599.87 1.05, 601.53 1.69, 750 139" stroke="#1e1e1e" stroke-width="2" fill="none"></path></g></g></svg>